<svg xmlns="http://www.w3.org/2000/svg" xmlns:xlink="http://www.w3.org/1999/xlink" viewBox="0 0 230 225" version="1.1"><g transform="translate(-20,-52)"><path class="domain" d="M 23 55 L 23 275 L 247 275 L 247 55 L 20 55" style="fill: none; stroke: rgb(108, 108, 108); stroke-width: 6"/><path class="domain" d="M 20 75 L 250 75" style="fill: none; stroke: rgb(108, 108, 108); stroke-width: 3"/><path class="domain" d="M 20 95 L 250 95" style="fill: none; stroke: rgb(108, 108, 108); stroke-width: 3"/><path class="domain" d="M 20 115 L 250 115" style="fill: none; stroke: rgb(108, 108, 108); stroke-width: 3"/><path class="domain" d="M 20 135 L 250 135" style="fill: none; stroke: rgb(108, 108, 108); stroke-width: 3"/><path class="domain" d="M 20 155 L 250 155" style="fill: none; stroke: rgb(108, 108, 108); stroke-width: 3"/><path class="domain" d="M 20 175 L 250 175" style="fill: none; stroke: rgb(108, 108, 108); stroke-width: 3"/><path class="domain" d="M 20 195 L 250 195" style="fill: none; stroke: rgb(108, 108, 108); stroke-width: 3"/><path class="domain" d="M 20 215 L 250 215" style="fill: none; stroke: rgb(108, 108, 108); stroke-width: 3"/><path class="domain" d="M 20 235 L 250 235" style="fill: none; stroke: rgb(108, 108, 108); stroke-width: 3"/><path class="domain" d="M 20 255 L 250 255" style="fill: none; stroke: rgb(108, 108, 108); stroke-width: 3"/><path class="domain" d="M 45 55 L 45 275" style="fill: none; stroke: rgb(108, 108, 108); stroke-width: 3"/><path class="domain" d="M 65 55 L 65 275" style="fill: none; stroke: rgb(108, 108, 108); stroke-width: 3"/><path class="domain" d="M 85 55 L 85 275" style="fill: none; stroke: rgb(108, 108, 108); stroke-width: 3"/><path class="domain" d="M 105 55 L 105 275" style="fill: none; stroke: rgb(108, 108, 108); stroke-width: 3"/><path class="domain" d="M 125 55 L 125 275" style="fill: none; stroke: rgb(108, 108, 108); stroke-width: 3"/><path class="domain" d="M 145 55 L 145 275" style="fill: none; stroke: rgb(108, 108, 108); stroke-width: 3"/><path class="domain" d="M 165 55 L 165 275" style="fill: none; stroke: rgb(108, 108, 108); stroke-width: 3"/><path class="domain" d="M 185 55 L 185 275" style="fill: none; stroke: rgb(108, 108, 108); stroke-width: 3"/><path class="domain" d="M 205 55 L 205 275" style="fill: none; stroke: rgb(108, 108, 108); stroke-width: 3"/><path class="domain" d="M 225 55 L 225 275" style="fill: none; stroke: rgb(108, 108, 108); stroke-width: 3"/><path class="domain" d="M 245 55 L 245 275" style="fill: none; stroke: rgb(108, 108, 108); stroke-width: 3"/></g></svg>