<svg xmlns="http://www.w3.org/2000/svg" viewBox="0 0 915 280" version="1.1"><g transform="translate(10,5)"><g transform="translate(0,270)"><path d="M0,6V0H900V6" style="fill: none; stroke: rgb(68, 68, 68); stroke-width: 4;"/></g><g><path d="M-6,0H0V270H-6" style="fill: none; stroke: rgb(68, 68, 68); stroke-width: 4;"/></g><g><g transform="translate(100,0)"><g transform="translate(-30,0)"><line  x1="30" y1="230.56920000000002" x2="30" y2="80"                          style="opacity: 1; stroke-dasharray: 3, 3; fill: rgb(255, 255, 255); stroke: rgb(0, 0, 0); stroke-width: 3px;"/><rect x="0" y="100" width="60" height="90"                          style="fill: rgb(255, 255, 255); stroke: rgb(0, 0, 0); stroke-width: 3px;"/><line x1="0" y1="80" x2="60" y2="80"                          style="fill: rgb(255, 255, 255); stroke: rgb(0, 0, 0); stroke-width: 3px;"/><line x1="0" y1="230.56920000000002" x2="60" y2="230.56920000000002"                          style="opacity: 1; fill: rgb(255, 255, 255); stroke: rgb(0, 0, 0); stroke-width: 3px;"/><line x1="0" y1="140" x2="60" y2="140"                          style="opacity: 1; fill: rgb(255, 255, 255); stroke: rgb(0, 0, 0); stroke-width: 3px;"/><circle r="5" cx="30" cy="40"                            style="opacity: 1; fill: none; stroke: rgb(0, 0, 0);"/><text dy=".3em" dx="-6" x="0" y="205.6158" text-anchor="end"/><text dy=".3em" dx="6" x="20" y="163.6146" text-anchor="start"/><text dy=".3em" dx="-6" x="0" y="138.18869999999998" text-anchor="end"/><text dy=".3em" dx="6" x="20" y="230.56920000000002" style="opacity: 1;"/><text dy=".3em" dx="6" x="20" y="128.0016" style="opacity: 1;"/></g></g><g transform="translate(330,0)"><g transform="translate(-30,0)"><line  x1="30" y1="210" x2="30" y2="60"                          style="opacity: 1; stroke-dasharray: 3, 3; fill: rgb(255, 255, 255); stroke: rgb(0, 0, 0); stroke-width: 3px;"/><rect x="0" y="100" width="60" height="60"                          style="fill: rgb(255, 255, 255); stroke: rgb(0, 0, 0); stroke-width: 3px;"/><line  x1="0" y1="60" x2="60" y2="60"                          style="fill: rgb(255, 255, 255); stroke: rgb(0, 0, 0); stroke-width: 3px;"/><line  x1="0" y1="210" x2="60" y2="210"                          style="opacity: 1; fill: rgb(255, 255, 255); stroke: rgb(0, 0, 0); stroke-width: 3px;"/><line  x1="0" y1="140" x2="60" y2="140"                          style="opacity: 1; fill: rgb(255, 255, 255); stroke: rgb(0, 0, 0); stroke-width: 3px;"/><text dy=".3em" dx="-6" x="0" y="205.6158" text-anchor="end"/><text dy=".3em" dx="6" x="20" y="163.6146" text-anchor="start"/><text dy=".3em" dx="-6" x="0" y="138.18869999999998" text-anchor="end"/><text  dy=".3em" dx="6" x="20" y="230.56920000000002" style="opacity: 1;"/><text  dy=".3em" dx="6" x="20" y="128.0016" style="opacity: 1;"/></g></g><g transform="translate(560,0)"><g transform="translate(-30,0)"><line  x1="30" y1="230.56920000000002" x2="30" y2="80"                          style="opacity: 1; stroke-dasharray: 3, 3; fill: rgb(255, 255, 255); stroke: rgb(0, 0, 0); stroke-width: 3px;"/><rect x="0" y="160" width="60" height="50"                          style="fill: rgb(255, 255, 255); stroke: rgb(0, 0, 0); stroke-width: 3px;"/><line  x1="0" y1="80" x2="60" y2="80"                          style="fill: rgb(255, 255, 255); stroke: rgb(0, 0, 0); stroke-width: 3px;"/><line  x1="0" y1="230.56920000000002" x2="60" y2="230.56920000000002"                          style="opacity: 1; fill: rgb(255, 255, 255); stroke: rgb(0, 0, 0); stroke-width: 3px;"/><line  x1="0" y1="190" x2="60" y2="190"                          style="opacity: 1; fill: rgb(255, 255, 255); stroke: rgb(0, 0, 0); stroke-width: 3px;"/><circle  r="5" cx="30" cy="20"                            style="opacity: 1; fill: none; stroke: rgb(0, 0, 0);"/><text dy=".3em" dx="-6" x="0" y="205.6158" text-anchor="end"/><text dy=".3em" dx="6" x="20" y="163.6146" text-anchor="start"/><text dy=".3em" dx="-6" x="0" y="138.18869999999998" text-anchor="end"/><text  dy=".3em" dx="6" x="20" y="230.56920000000002" style="opacity: 1;"/><text  dy=".3em" dx="6" x="20" y="128.0016" style="opacity: 1;"/></g></g><g transform="translate(790,0)"><g transform="translate(-30,0)"><line  x1="30" y1="250" x2="30" y2="30"                          style="opacity: 1; stroke-dasharray: 3, 3; fill: rgb(255, 255, 255); stroke: rgb(0, 0, 0); stroke-width: 3px;"/><rect x="0" y="60" width="60" height="140"                          style="fill: rgb(255, 255, 255); stroke: rgb(0, 0, 0); stroke-width: 3px;"/><line  x1="0" y1="30" x2="60" y2="30"                          style="fill: rgb(255, 255, 255); stroke: rgb(0, 0, 0); stroke-width: 3px;"/><line  x1="0" y1="250" x2="60" y2="250"                          style="opacity: 1; fill: rgb(255, 255, 255); stroke: rgb(0, 0, 0); stroke-width: 3px;"/><line  x1="0" y1="140" x2="60" y2="140"                          style="opacity: 1; fill: rgb(255, 255, 255); stroke: rgb(0, 0, 0); stroke-width: 3px;"/><text dy=".3em" dx="-6" x="0" y="205.6158" text-anchor="end"/><text dy=".3em" dx="6" x="20" y="163.6146" text-anchor="start"/><text dy=".3em" dx="-6" x="0" y="138.18869999999998" text-anchor="end"/><text  dy=".3em" dx="6" x="20" y="230.56920000000002" style="opacity: 1;"/><text  dy=".3em" dx="6" x="20" y="128.0016" style="opacity: 1;"/></g></g></g></g></svg>