<svg id="Layer_6" data-name="Layer 6" xmlns="http://www.w3.org/2000/svg" viewBox="0 0 155.21 57"><path d="M87.2,8.52" transform="translate(25.61 -38.34)" style="fill:#7470b2;fill-opacity:0.46;stroke:#575756;stroke-miterlimit:10"/><line x1="101.58" y1="28.5" x2="95.61" y2="28.5" style="fill:none;stroke:#575756;stroke-linecap:round;stroke-linejoin:round;stroke-width:2px"/><polygon points="100.56 25.01 106.61 28.5 100.56 31.99 100.56 25.01" style="fill:#575756"/><circle cx="9" cy="12.5" r="2.5" style="fill:#199e77"/><circle cx="18" cy="30.5" r="2.5" style="fill:#199e77"/><circle cx="11" cy="30.5" r="2.5" style="fill:#199e77"/><circle cx="15" cy="37.5" r="2.5" style="fill:#199e77"/><circle cx="17" cy="21.5" r="2.5" style="fill:#199e77"/><circle cx="9" cy="21.5" r="2.5" style="fill:#199e77"/><circle cx="16" cy="15.5" r="2.5" style="fill:#199e77"/><circle cx="24" cy="39.5" r="2.5" style="fill:#199e77"/><circle cx="5" cy="27.5" r="2.5" style="fill:#199e77"/><circle cx="13" cy="25.5" r="2.5" style="fill:#199e77"/><circle cx="5" cy="16.5" r="2.5" style="fill:#199e77"/><circle cx="33" cy="8.5" r="2.5" style="fill:#575756"/><circle cx="31" cy="26.5" r="2.5" style="fill:#575756"/><circle cx="37" cy="15.5" r="2.5" style="fill:#575756"/><circle cx="36" cy="33.5" r="2.5" style="fill:#575756"/><circle cx="40" cy="39.5" r="2.5" style="fill:#575756"/><circle cx="31" cy="50.5" r="2.5" style="fill:#575756"/><circle cx="15" cy="4.5" r="2.5" style="fill:#575756"/><circle cx="9" cy="51.5" r="2.5" style="fill:#575756"/><circle cx="28" cy="14.5" r="2.5" style="fill:#575756"/><circle cx="6" cy="43.5" r="2.5" style="fill:#575756"/><rect x="0.5" y="0.5" width="44" height="56" style="fill:none;stroke:#575756;stroke-miterlimit:10"/><path d="M-24.28,65.07c.28-9.07-2.91-15.93,6.19-18.5s12.7,4.32,12.7,4.32S-2.2,70.51,2.4,76.26-3.33,83.08-9,82C-12.89,81.18-24.57,74.15-24.28,65.07Z" transform="translate(25.61 -38.34)" style="fill:#199e77;opacity:0.2"/><path d="M-14.2,46a14.4,14.4,0,0,0-3.89.57h-.06l.28,1,.05,0A13.61,13.61,0,0,1-14.2,47V46Zm-7.56,2.26a6.72,6.72,0,0,0-1.19,1.12h0l0,0h0l0,0h0l0,0h-.25l0,0h0v0h0v0h0A5.72,5.72,0,0,0-24,51.14h0v0h0v0h0a.88.88,0,0,0-.05.15l.95.32a5.32,5.32,0,0,1,2-2.7l-.6-.8Zm-2.84,7.13c0,1.18.07,2.44.15,3.78v.21l1-.06v-.21c-.08-1.32-.16-2.57-.15-3.72Zm1.33,8h-1c0,.52,0,1.05,0,1.59h0v0h0v0h0v0h0v0h0v0h0v0h0a11,11,0,0,0,.12,1.14h0v0h0v0h0v0l1-.19a9.08,9.08,0,0,1-.16-2.07c0-.57,0-1.13,0-1.74Zm1.41,7.26-.88.48a18.69,18.69,0,0,0,2.29,3.27l.76-.66a17.06,17.06,0,0,1-2.17-3.09Zm4.92,5.77-.64.76c.38.32.77.63,1.16.92h.08c.51.39,1,.74,1.53,1.08h0l0,0h.06l.37.24.53-.85a29.17,29.17,0,0,1-3.12-2.26Zm6.51,4-.38.93a10,10,0,0,0,1.75.57H-9l.74.13h.49l.83.1.09-1a18.48,18.48,0,0,1-2-.28,8.16,8.16,0,0,1-1.63-.53ZM.64,80.6A13.78,13.78,0,0,1-3,81.29l.07,1A14.74,14.74,0,0,0,1,81.53L.64,80.6Zm1.1-5.28-.84.54a10.7,10.7,0,0,0,.72,1,3.55,3.55,0,0,1,.93,2l1,0a3.24,3.24,0,0,0-.44-1.49H3v0H3v0H3a7.43,7.43,0,0,0-.46-.68h0l0,0h0v0H2.39l-.33-.44H2c-.1-.14-.19-.28-.28-.42ZM-1.39,68l-1,.31c.46,1.41.92,2.7,1.38,3.83L0,71.74C-.52,70.58-1,69.3-1.39,68ZM-3.5,60.26l-1,.23c.32,1.37.65,2.68,1,3.91l1-.26c-.18-.66-.35-1.33-.52-2h0v0h0v0h0v0h0c-.15-.59-.29-1.18-.43-1.75Zm-1.62-7.83-1,.18c.17.88.43,2.29.77,4l1-.2c-.18-.89-.34-1.7-.48-2.41h0v0h0v0h0c-.06-.29-.11-.56-.16-.81h0c0-.2-.07-.39-.1-.57Zm-5.06-5.67-.38.93a9,9,0,0,1,3,2l.71-.71a10.25,10.25,0,0,0-3.3-2.21Zm-4-.76v1h.11V46h-.12Z" transform="translate(25.61 -38.34)" style="fill:#199e77"/><circle cx="56" cy="12.5" r="2.5" style="fill:#575756"/><circle cx="65" cy="30.5" r="2.5" style="fill:#575756"/><circle cx="58" cy="30.5" r="2.5" style="fill:#575756"/><circle cx="62" cy="37.5" r="2.5" style="fill:#575756"/><circle cx="64" cy="21.5" r="2.5" style="fill:#575756"/><circle cx="56" cy="21.5" r="2.5" style="fill:#575756"/><circle cx="63" cy="15.5" r="2.5" style="fill:#575756"/><circle cx="71" cy="39.5" r="2.5" style="fill:#575756"/><circle cx="52" cy="27.5" r="2.5" style="fill:#575756"/><circle cx="60" cy="25.5" r="2.5" style="fill:#575756"/><circle cx="52" cy="16.5" r="2.5" style="fill:#575756"/><circle cx="80" cy="8.5" r="2.5" style="fill:#575756"/><circle cx="78" cy="26.5" r="2.5" style="fill:#d86013"/><circle cx="84" cy="15.5" r="2.5" style="fill:#575756"/><circle cx="83" cy="33.5" r="2.5" style="fill:#d86013"/><circle cx="87" cy="39.5" r="2.5" style="fill:#d86013"/><circle cx="78" cy="50.5" r="2.5" style="fill:#575756"/><circle cx="62" cy="4.5" r="2.5" style="fill:#575756"/><circle cx="56" cy="51.5" r="2.5" style="fill:#575756"/><circle cx="75" cy="14.5" r="2.5" style="fill:#575756"/><circle cx="53" cy="43.5" r="2.5" style="fill:#575756"/><rect x="47.5" y="0.5" width="44" height="56" style="fill:none;stroke:#575756;stroke-miterlimit:10"/><path d="M49.05,62.58C53,54,70.66,78.74,63.83,81.37S45.09,71.15,49.05,62.58Z" transform="translate(25.61 -38.34)" style="fill:#d86013;opacity:0.2"/><path d="M51.55,60.78a2.67,2.67,0,0,0-2.5,1.8h0c-.07.14-.13.29-.19.44h0c0,.06-.05.12-.07.19l.94.33c.07-.19.15-.39.24-.58.5-1.08,1.12-1.22,1.6-1.22v-1ZM49.29,67.1l-1,.09a12.82,12.82,0,0,0,.75,3.32h0v0h.07v0h0v0h0l.11.27.93-.37a12.38,12.38,0,0,1-.9-3.58ZM52,74l-.83.56a20.52,20.52,0,0,0,2.57,3.06l.7-.72A19.93,19.93,0,0,1,52,74Zm5.4,5.23-.52.86H59.1l.6.2h0l.06,0h.8l.18-1a10.36,10.36,0,0,1-3.35-1.38Zm7.87-1.89-1,.18c.18,1,.24,2.2-.45,2.73l.6.79c.93-.7,1.14-2,.84-3.7Zm-3.21-7.29-.84.54A29.53,29.53,0,0,1,63.07,74l.91-.42a30.69,30.69,0,0,0-1.93-3.51Zm-5-6.21-.69.73A27.07,27.07,0,0,1,59,67.42l.78-.62a29.94,29.94,0,0,0-2.69-3Zm-5.49-3.06h0v1h0a4.1,4.1,0,0,1,1.83.56l.47-.89a5.34,5.34,0,0,0-2.07-.66h-.23Z" transform="translate(25.61 -38.34)" style="fill:#d86013"/><circle cx="119.21" cy="12.5" r="2.5" style="fill:#199e77"/><circle cx="128.21" cy="30.5" r="2.5" style="fill:#199e77"/><circle cx="121.21" cy="30.5" r="2.5" style="fill:#199e77"/><circle cx="125.21" cy="37.5" r="2.5" style="fill:#199e77"/><circle cx="127.21" cy="21.5" r="2.5" style="fill:#199e77"/><circle cx="119.21" cy="21.5" r="2.5" style="fill:#199e77"/><circle cx="126.21" cy="15.5" r="2.5" style="fill:#199e77"/><circle cx="134.21" cy="39.5" r="2.5" style="fill:#199e77"/><circle cx="115.21" cy="27.5" r="2.5" style="fill:#199e77"/><circle cx="123.21" cy="25.5" r="2.5" style="fill:#199e77"/><circle cx="115.21" cy="16.5" r="2.5" style="fill:#199e77"/><circle cx="143.21" cy="8.5" r="2.5" style="fill:#575756"/><circle cx="141.21" cy="26.5" r="2.5" style="fill:#575756"/><circle cx="147.21" cy="15.5" r="2.5" style="fill:#575756"/><circle cx="146.21" cy="33.5" r="2.5" style="fill:#575756"/><circle cx="150.21" cy="39.5" r="2.5" style="fill:#575756"/><circle cx="141.21" cy="50.5" r="2.5" style="fill:#575756"/><circle cx="125.21" cy="4.5" r="2.5" style="fill:#575756"/><circle cx="119.21" cy="51.5" r="2.5" style="fill:#575756"/><circle cx="138.21" cy="14.5" r="2.5" style="fill:#575756"/><circle cx="116.21" cy="43.5" r="2.5" style="fill:#575756"/><rect x="110.71" y="0.5" width="44" height="56" style="fill:none;stroke:#575756;stroke-miterlimit:10"/><path d="M85.93,65.07c.28-9.07-2.9-15.93,6.19-18.5s12.7,4.32,12.7,4.32,3.19,19.62,7.79,25.37-5.73,6.82-11.39,5.7C97.32,81.18,85.64,74.15,85.93,65.07Z" transform="translate(25.61 -38.34)" style="fill:#199e77;opacity:0.2"/><path d="M96,46a14.4,14.4,0,0,0-3.89.57h-.05l.27,1,0,0A13.61,13.61,0,0,1,96,47V46Zm-7.55,2.26a5.12,5.12,0,0,0-.44.34h0l0,0h-.13l0,0h0a6.23,6.23,0,0,0-1.36,1.83h-.07v0h0c-.1.22-.18.43-.26.66l1,.32a5.32,5.32,0,0,1,2-2.7l-.59-.8Zm-2.85,7.13c0,.84,0,1.74.09,2.67h0v0h0c0,.36,0,.72.07,1.09v.16l1-.06,0-.21c-.08-1.32-.15-2.57-.15-3.72Zm1.33,8h-1c0,.14,0,.29,0,.43h0c0,.33,0,.66,0,1h0v0h0v0h0v0h0v0h0v0h0v0h0v0h0v0h0v0h0v0h0v0h0v0h0v0h0A10.35,10.35,0,0,0,86,67h0v0h0v0h0v0h0l0,.16,1-.19a9.68,9.68,0,0,1-.16-2.07c0-.57,0-1.13,0-1.74Zm1.41,7.26-.88.48a18.3,18.3,0,0,0,1.85,2.74h0l0,0h.21v0h0l0,0h0l.15.18.75-.66a17.06,17.06,0,0,1-2.17-3.09Zm4.92,5.77-.64.76h0A28.61,28.61,0,0,0,95.11,79h.14c.2.14.41.27.62.4l.53-.85a28.32,28.32,0,0,1-3.13-2.26Zm6.52,4-.39.93.26.1h.06a10.16,10.16,0,0,0,1.5.46h0c.4.07.81.14,1.25.2h.26l.56.06.09-1a17.76,17.76,0,0,1-2-.28,8,8,0,0,1-1.63-.53Zm11.06.16a13.62,13.62,0,0,1-3.64.69l.07,1a17.44,17.44,0,0,0,2.1-.27h.8l0,0h0a9.16,9.16,0,0,0,1-.3l-.35-.93Zm1.1-5.28-.84.54c.24.37.48.72.72,1a3.48,3.48,0,0,1,.93,2l1,0v0h0v0h0a3.15,3.15,0,0,0-.26-1h0v0h-.06v0h0a7,7,0,0,0-.75-1.15h0v0h0q-.31-.41-.63-.9ZM108.82,68l-.95.31c.45,1.41.92,2.7,1.38,3.83l.92-.38c-.47-1.16-.93-2.44-1.35-3.76Zm-2.1-7.72-1,.23c.32,1.37.65,2.68,1,3.91l1-.26c-.07-.28-.15-.56-.22-.85h0v0h0c-.18-.67-.34-1.34-.5-2h0c-.07-.27-.13-.54-.19-.81Zm-1.63-7.83-1,.18c.16.88.42,2.29.77,4l1-.2c-.07-.34-.14-.67-.2-1h0c-.15-.74-.28-1.41-.39-2h0c-.06-.33-.12-.63-.17-.9ZM100,46.76l-.38.93a8.82,8.82,0,0,1,3,2l.71-.71a10.25,10.25,0,0,0-3.3-2.21ZM96,46v1h.11V46H96Z" transform="translate(25.61 -38.34)" style="fill:#199e77"/><circle cx="141.21" cy="26.5" r="2.5" style="fill:#d86013"/><circle cx="146.21" cy="33.5" r="2.5" style="fill:#d86013"/><circle cx="150.21" cy="39.5" r="2.5" style="fill:#d86013"/><path d="M112.26,62.58C116.21,54,133.88,78.74,127,81.37S108.3,71.15,112.26,62.58Z" transform="translate(25.61 -38.34)" style="fill:#d86013;opacity:0.2"/><path d="M114.76,60.78a2.67,2.67,0,0,0-2.5,1.8h0c-.06.14-.13.29-.18.44h0c0,.06,0,.12-.08.19l1,.33c.07-.19.15-.39.24-.58.49-1.08,1.11-1.22,1.59-1.22v-1Zm-2.25,6.32-1,.09a13.25,13.25,0,0,0,.75,3.32h0v0h.07v0h0v0h0c0,.09.08.18.11.27l.93-.37a12,12,0,0,1-.89-3.58ZM115.2,74l-.82.56A20.52,20.52,0,0,0,117,77.62l.7-.72A19.39,19.39,0,0,1,115.2,74Zm5.41,5.23-.53.86h2.23l.6.2h0l.06,0h.8l.19-1a10.27,10.27,0,0,1-3.35-1.38Zm7.86-1.89-1,.18c.18,1,.24,2.2-.45,2.73l.6.79c.93-.7,1.14-2,.84-3.7Zm-3.2-7.29-.85.54A28.07,28.07,0,0,1,126.28,74l.91-.42a30.57,30.57,0,0,0-1.92-3.51Zm-5-6.21-.69.73a28.25,28.25,0,0,1,2.61,2.85l.78-.62a30,30,0,0,0-2.7-3Zm-5.49-3.06h0v1h0a4.13,4.13,0,0,1,1.84.56l.46-.89a5.35,5.35,0,0,0-2.06-.66h-.24Z" transform="translate(25.61 -38.34)" style="fill:#d86013"/></svg>