<?xml version="1.0" encoding="UTF-8" standalone="no"?><svg xmlns:dc="http://purl.org/dc/elements/1.1/" xmlns:cc="http://creativecommons.org/ns#" xmlns:rdf="http://www.w3.org/1999/02/22-rdf-syntax-ns#" xmlns:svg="http://www.w3.org/2000/svg" xmlns="http://www.w3.org/2000/svg" xmlns:sodipodi="http://sodipodi.sourceforge.net/DTD/sodipodi-0.dtd" xmlns:inkscape="http://www.inkscape.org/namespaces/inkscape" viewBox="0 0 255 265" version="1.1" id="svg30" sodipodi:docname="connectionIcon.svg" inkscape:version="0.92.1 r15371" width="255" height="265"><metadata id="metadata36"><rdf:RDF><cc:Work rdf:about=""><dc:format>image/svg+xml</dc:format><dc:type rdf:resource="http://purl.org/dc/dcmitype/StillImage" /><dc:title /></cc:Work></rdf:RDF></metadata><defs id="defs34"><marker inkscape:stockid="Arrow2Lend" orient="auto" refY="0.0" refX="0.0" id="Arrow2Lend" style="overflow:visible;" inkscape:isstock="true"><path id="path4527" style="fill-rule:evenodd;stroke-width:0.625;stroke-linejoin:round;stroke:#81889f;stroke-opacity:1;fill:#81889f;fill-opacity:1" d="M 8.7185878,4.0337352 L -2.2072895,0.016013256 L 8.7185884,-4.0017078 C 6.9730900,-1.6296469 6.9831476,1.6157441 8.7185878,4.0337352 z " transform="scale(1.1) rotate(180) translate(1,0)" /></marker><marker inkscape:stockid="Arrow2Lstart" orient="auto" refY="0.0" refX="0.0" id="marker8394" style="overflow:visible" inkscape:isstock="true"><path id="path8392" style="fill-rule:evenodd;stroke-width:0.625;stroke-linejoin:round;stroke:#81889f;stroke-opacity:1;fill:#81889f;fill-opacity:1" d="M 8.7185878,4.0337352 L -2.2072895,0.016013256 L 8.7185884,-4.0017078 C 6.9730900,-1.6296469 6.9831476,1.6157441 8.7185878,4.0337352 z " transform="scale(1.1) translate(1,0)" /></marker><marker inkscape:stockid="CurveOut" orient="auto" refY="0.0" refX="0.0" id="CurveOut" style="overflow:visible" inkscape:isstock="true"><path id="path4693" d="M -5.4129913,-5.0456926 C -2.6529913,-5.0456926 -0.41299131,-2.8056926 -0.41299131,-0.045692580 C -0.41299131,2.7143074 -2.6529913,4.9543074 -5.4129913,4.9543074" style="fill:none;fill-rule:evenodd;stroke:#81889f;stroke-width:1pt;stroke-opacity:1" transform="scale(0.6)" /></marker><marker inkscape:stockid="Arrow2Lstart" orient="auto" refY="0.0" refX="0.0" id="Arrow2Lstart" style="overflow:visible" inkscape:isstock="true"><path id="path4524" style="fill-rule:evenodd;stroke-width:0.625;stroke-linejoin:round;stroke:#81889f;stroke-opacity:1;fill:#81889f;fill-opacity:1" d="M 8.7185878,4.0337352 L -2.2072895,0.016013256 L 8.7185884,-4.0017078 C 6.9730900,-1.6296469 6.9831476,1.6157441 8.7185878,4.0337352 z " transform="scale(1.1) translate(1,0)" /></marker><marker inkscape:stockid="CurveIn" orient="auto" refY="0.0" refX="0.0" id="CurveIn" style="overflow:visible" inkscape:isstock="true"><path id="path4690" d="M 4.6254930,-5.0456926 C 1.8654930,-5.0456926 -0.37450702,-2.8056926 -0.37450702,-0.045692580 C -0.37450702,2.7143074 1.8654930,4.9543074 4.6254930,4.9543074" style="fill-rule:evenodd;stroke:#81889f;stroke-width:1pt;fill:none;stroke-opacity:1" transform="scale(0.6)" /></marker><marker inkscape:stockid="Arrow1Send" orient="auto" refY="0.0" refX="0.0" id="Arrow1Send" style="overflow:visible;" inkscape:isstock="true"><path id="path4521" d="M 0.0,0.0 L 5.0,-5.0 L -12.5,0.0 L 5.0,5.0 L 0.0,0.0 z " style="fill-rule:evenodd;stroke:#81889f;stroke-width:1pt;stroke-opacity:1;fill:#81889f;fill-opacity:1" transform="scale(0.2) rotate(180) translate(6,0)" /></marker><marker inkscape:stockid="Arrow1Lend" orient="auto" refY="0.0" refX="0.0" id="Arrow1Lend" style="overflow:visible;" inkscape:isstock="true"><path id="path4509" d="M 0.0,0.0 L 5.0,-5.0 L -12.5,0.0 L 5.0,5.0 L 0.0,0.0 z " style="fill-rule:evenodd;stroke:#81889f;stroke-width:1pt;stroke-opacity:1;fill:#81889f;fill-opacity:1" transform="scale(0.8) rotate(180) translate(12.5,0)" /></marker><marker inkscape:stockid="Arrow1Lstart" orient="auto" refY="0.0" refX="0.0" id="Arrow1Lstart" style="overflow:visible" inkscape:isstock="true"><path id="path4506" d="M 0.0,0.0 L 5.0,-5.0 L -12.5,0.0 L 5.0,5.0 L 0.0,0.0 z " style="fill-rule:evenodd;stroke:#81889f;stroke-width:1pt;stroke-opacity:1;fill:#81889f;fill-opacity:1" transform="scale(0.8) translate(12.5,0)" /></marker><marker inkscape:stockid="Arrow2Lstart" orient="auto" refY="0" refX="0" id="Arrow2Lstart-5" style="overflow:visible" inkscape:isstock="true"><path inkscape:connector-curvature="0" id="path4524-2" style="fill:#81889f;fill-opacity:1;fill-rule:evenodd;stroke:#81889f;stroke-width:0.625;stroke-linejoin:round;stroke-opacity:1" d="M 8.7185878,4.0337352 -2.2072895,0.01601326 8.7185884,-4.0017078 c -1.7454984,2.3720609 -1.7354408,5.6174519 -6e-7,8.035443 z" transform="matrix(1.1,0,0,1.1,1.1,0)" /></marker><marker inkscape:stockid="CurveIn" orient="auto" refY="0" refX="0" id="CurveIn-8" style="overflow:visible" inkscape:isstock="true"><path inkscape:connector-curvature="0" id="path4690-7" d="m 4.625493,-5.0456926 c -2.76,0 -5.00000002,2.24 -5.00000002,5.00000002 0,2.75999998 2.24000002,4.99999998 5.00000002,4.99999998" style="fill:none;fill-rule:evenodd;stroke:#81889f;stroke-width:1.00000003pt;stroke-opacity:1" transform="scale(0.6)" /></marker><marker inkscape:stockid="Arrow2Lstart" orient="auto" refY="0" refX="0" id="Arrow2Lstart-5-9" style="overflow:visible" inkscape:isstock="true"><path inkscape:connector-curvature="0" id="path4524-2-8" style="fill:#81889f;fill-opacity:1;fill-rule:evenodd;stroke:#81889f;stroke-width:0.625;stroke-linejoin:round;stroke-opacity:1" d="M 8.7185878,4.0337352 -2.2072895,0.01601326 8.7185884,-4.0017078 c -1.7454984,2.3720609 -1.7354408,5.6174519 -6e-7,8.035443 z" transform="matrix(1.1,0,0,1.1,1.1,0)" /></marker><marker inkscape:stockid="CurveIn" orient="auto" refY="0" refX="0" id="CurveIn-8-7" style="overflow:visible" inkscape:isstock="true"><path inkscape:connector-curvature="0" id="path4690-7-2" d="m 4.625493,-5.0456926 c -2.76,0 -5.00000002,2.24 -5.00000002,5.00000002 0,2.75999998 2.24000002,4.99999998 5.00000002,4.99999998" style="fill:none;fill-rule:evenodd;stroke:#81889f;stroke-width:1.00000003pt;stroke-opacity:1" transform="scale(0.6)" /></marker></defs><sodipodi:namedview pagecolor="#ffffff" bordercolor="#666666" borderopacity="1" objecttolerance="10" gridtolerance="10" guidetolerance="10" inkscape:pageopacity="0" inkscape:pageshadow="2" inkscape:window-width="2560" inkscape:window-height="1018" id="namedview32" showgrid="false" inkscape:zoom="2" inkscape:cx="-85.93996" inkscape:cy="164.76271" inkscape:window-x="-5" inkscape:window-y="-5" inkscape:window-maximized="1" inkscape:current-layer="svg30" showguides="false" inkscape:measure-start="-2.82843,-77.0746" inkscape:measure-end="308.299,48.7904" /><path style="fill:none;fill-opacity:0.31155778;stroke:#81889f;stroke-width:5.01049852;stroke-miterlimit:4;stroke-dasharray:none;stroke-opacity:1" d="M 17.686401,99.404066 A 115.70367,115.70367 0 0 1 128.0433,18.466652 115.70367,115.70367 0 0 1 238.39067,99.373808" id="path6104-3" inkscape:connector-curvature="0" /><rect style="fill:#ffffff;fill-opacity:1;stroke:#81889f;stroke-width:2.18636656;stroke-linecap:round;stroke-linejoin:round;stroke-miterlimit:4;stroke-dasharray:none;stroke-dashoffset:0;stroke-opacity:1" id="rect5355" width="192.81363" height="200.81363" x="29.39827" y="25.424143" /><path style="fill:#f8f9fa;fill-opacity:1;stroke:none;stroke-width:4.90080786;stroke-miterlimit:4;stroke-dasharray:none;stroke-opacity:1" d="M -72.575576,107.5766 V 264.79046 H 353.14003 V 107.5766 H 236.7041 a 115.06005,105.74519 0 0 1 6.14106,33.67366 A 115.06005,105.74519 0 0 1 127.7856,246.99504 115.06005,105.74519 0 0 1 12.726035,141.25026 115.06005,105.74519 0 0 1 18.827377,107.5766 Z" id="rect5964" inkscape:connector-curvature="0" /><path style="fill:none;fill-opacity:0.31155778;stroke:#81889f;stroke-width:5.01049852;stroke-miterlimit:4;stroke-dasharray:none;stroke-opacity:1" d="m 238.39067,99.373808 a 115.70367,115.70367 0 0 1 5.3563,34.796512 v 0 0 A 115.70367,115.70367 0 0 1 128.0433,249.87399 115.70367,115.70367 0 0 1 12.339638,134.17032 115.70367,115.70367 0 0 1 17.686401,99.404066" id="path4540" inkscape:connector-curvature="0" /><path style="fill:none;stroke:#81889f;stroke-width:3;stroke-linecap:butt;stroke-linejoin:miter;stroke-miterlimit:4;stroke-dasharray:12,3;stroke-dashoffset:0;stroke-opacity:1;marker-start:url(#Arrow2Lstart-5);marker-end:url(#CurveIn-8)" d="M 56.561819,75.110128 190.37113,133.00607" id="path5200-3" inkscape:connector-curvature="0" sodipodi:nodetypes="cc" /><path style="fill:none;stroke:#81889f;stroke-width:3;stroke-linecap:butt;stroke-linejoin:miter;stroke-miterlimit:4;stroke-dasharray:12,3;stroke-dashoffset:0;stroke-opacity:1;marker-start:url(#Arrow2Lstart-5-9);marker-end:url(#CurveIn-8-7)" d="M 195.04835,176.55179 61.239043,118.65585" id="path5200-3-9" inkscape:connector-curvature="0" sodipodi:nodetypes="cc" /></svg>