<svg xmlns="http://www.w3.org/2000/svg" viewBox="0 0 243.46 87.15"><g id="Layer_3" data-name="Layer 3"><path d="M191.5,37.1" transform="translate(14 -5.6)" style="fill:#199e77;fill-opacity:0.46;stroke:#575756;stroke-miterlimit:10"/><path d="M122.5,37.1" transform="translate(14 -5.6)" style="fill:#199e77;fill-opacity:0.46;stroke:#575756;stroke-miterlimit:10"/></g><g id="Layer_2" data-name="Layer 2"><rect x="26.49" y="13" width="84" height="7" style="fill:#cee2d7"/><rect x="26.49" y="33" width="84" height="8.5" style="fill:#cee2d7"/><rect x="62.5" y="13" width="17" height="7" style="fill:#199e77"/><rect x="62.5" y="33" width="17" height="7" style="fill:#199e77"/><line x1="41" y1="1.5" x2="41" y2="61.5" style="fill:none;stroke:#575756;stroke-linecap:round;stroke-linejoin:round;stroke-width:3px"/><line x1="61" y1="1.5" x2="61" y2="61.5" style="fill:none;stroke:#575756;stroke-linecap:round;stroke-linejoin:round;stroke-width:3px"/><line x1="81" y1="1.5" x2="81" y2="61.5" style="fill:none;stroke:#575756;stroke-linecap:round;stroke-linejoin:round;stroke-width:3px"/><rect x="26" y="3.5" width="85" height="8" style="fill:#575756;stroke:#575756;stroke-linecap:round;stroke-linejoin:round;stroke-width:3px"/><line x1="26" y1="21.5" x2="111" y2="21.5" style="fill:none;stroke:#575756;stroke-linecap:round;stroke-linejoin:round;stroke-width:3px"/><line x1="26" y1="31.5" x2="111" y2="31.5" style="fill:none;stroke:#575756;stroke-linecap:round;stroke-linejoin:round;stroke-width:3px"/><line x1="26" y1="41.5" x2="111" y2="41.5" style="fill:none;stroke:#575756;stroke-linecap:round;stroke-linejoin:round;stroke-width:3px"/><line x1="26" y1="51.5" x2="111" y2="51.5" style="fill:none;stroke:#575756;stroke-linecap:round;stroke-linejoin:round;stroke-width:3px"/><rect x="25" y="1.5" width="87" height="60" rx="2" style="fill:none;stroke:#575756;stroke-linecap:round;stroke-linejoin:round;stroke-width:3px"/><rect x="131.91" y="41.4" width="84" height="10" style="fill:#f5d2b6"/><rect x="130" y="21.4" width="87" height="10" style="fill:#f5d2b6"/><rect x="130" y="21.4" width="16" height="10" style="fill:#199e77"/><rect x="130" y="41.4" width="16" height="10" style="fill:#199e77"/><line x1="146.41" y1="1.5" x2="146.41" y2="61.5" style="fill:none;stroke:#575756;stroke-linecap:round;stroke-linejoin:round;stroke-width:3px"/><line x1="166.41" y1="1.5" x2="166.41" y2="61.5" style="fill:none;stroke:#575756;stroke-linecap:round;stroke-linejoin:round;stroke-width:3px"/><line x1="186.41" y1="1.5" x2="186.41" y2="61.5" style="fill:none;stroke:#575756;stroke-linecap:round;stroke-linejoin:round;stroke-width:3px"/><rect x="131.41" y="3.5" width="85" height="8" style="fill:#575756;stroke:#575756;stroke-linecap:round;stroke-linejoin:round;stroke-width:3px"/><line x1="131.41" y1="21.5" x2="216.41" y2="21.5" style="fill:none;stroke:#575756;stroke-linecap:round;stroke-linejoin:round;stroke-width:3px"/><line x1="131.41" y1="31.5" x2="216.41" y2="31.5" style="fill:none;stroke:#575756;stroke-linecap:round;stroke-linejoin:round;stroke-width:3px"/><line x1="131.41" y1="41.5" x2="216.41" y2="41.5" style="fill:none;stroke:#575756;stroke-linecap:round;stroke-linejoin:round;stroke-width:3px"/><line x1="131.41" y1="51.5" x2="216.41" y2="51.5" style="fill:none;stroke:#575756;stroke-linecap:round;stroke-linejoin:round;stroke-width:3px"/><rect x="130.41" y="1.5" width="87" height="60" rx="2" style="fill:none;stroke:#575756;stroke-linecap:round;stroke-linejoin:round;stroke-width:3px"/></g><g id="Layer_6" data-name="Layer 6"><circle cx="25.5" cy="61.65" r="24.5" style="fill:#199e77;stroke:#575756;stroke-miterlimit:10;stroke-width:2px"/><polyline points="11 50.15 21 65.15 21 80.15 31 73.15 31 65.15 41 50.15" style="fill:#fff;stroke:#575756;stroke-linecap:round;stroke-linejoin:round;stroke-width:2px"/><ellipse cx="26" cy="50.15" rx="15" ry="3" style="fill:#fff;stroke:#575756;stroke-miterlimit:10;stroke-width:2px"/><path d="M17,54.75" transform="translate(14 -5.6)" style="fill:#199e77;stroke:#575756;stroke-linecap:round;stroke-linejoin:round;stroke-width:2px"/><circle cx="217.96" cy="61.65" r="24.5" style="fill:#d86013;stroke:#575756;stroke-miterlimit:10;stroke-width:2px"/><polyline points="203.46 50.15 213.46 65.15 213.46 80.15 223.46 73.15 223.46 65.15 233.46 50.15" style="fill:#fff;stroke:#575756;stroke-linecap:round;stroke-linejoin:round;stroke-width:2px"/><ellipse cx="218.46" cy="50.15" rx="15" ry="3" style="fill:#fff;stroke:#575756;stroke-miterlimit:10;stroke-width:2px"/><path d="M209.46,54.75" transform="translate(14 -5.6)" style="fill:#199e77;stroke:#575756;stroke-linecap:round;stroke-linejoin:round;stroke-width:2px"/></g></svg>