<svg xmlns="http://www.w3.org/2000/svg" viewBox="0 0 37 37"><g id="Layer_3" data-name="Layer 3"><path d="M191.5,24.5" transform="translate(-24 -34)" style="fill:#199e77;fill-opacity:0.46;stroke:#575756;stroke-miterlimit:10"/><path d="M122.5,31.5" transform="translate(-24 -34)" style="fill:#199e77;fill-opacity:0.46;stroke:#575756;stroke-miterlimit:10"/><line x1="1" y1="6" x2="1" y2="16" style="fill:none;stroke:#575756;stroke-linecap:round;stroke-linejoin:round;stroke-width:2px"/><line x1="11" y1="6" x2="11" y2="16" style="fill:none;stroke:#575756;stroke-linecap:round;stroke-linejoin:round;stroke-width:2px"/><line x1="11" y1="16" x2="1" y2="16" style="fill:none;stroke:#575756;stroke-linecap:round;stroke-linejoin:round;stroke-width:2px"/><line x1="1" y1="16" x2="1" y2="26" style="fill:none;stroke:#575756;stroke-linecap:round;stroke-linejoin:round;stroke-width:2px"/><line x1="11" y1="16" x2="11" y2="26" style="fill:none;stroke:#575756;stroke-linecap:round;stroke-linejoin:round;stroke-width:2px"/><line x1="11" y1="26" x2="1" y2="26" style="fill:none;stroke:#575756;stroke-linecap:round;stroke-linejoin:round;stroke-width:2px"/><line x1="1" y1="26" x2="1" y2="36" style="fill:none;stroke:#575756;stroke-linecap:round;stroke-linejoin:round;stroke-width:2px"/><line x1="11" y1="26" x2="11" y2="36" style="fill:none;stroke:#575756;stroke-linecap:round;stroke-linejoin:round;stroke-width:2px"/><line x1="11" y1="36" x2="1" y2="36" style="fill:none;stroke:#575756;stroke-linecap:round;stroke-linejoin:round;stroke-width:2px"/><line x1="21" y1="16" x2="11" y2="16" style="fill:none;stroke:#575756;stroke-linecap:round;stroke-linejoin:round;stroke-width:2px"/><line x1="21" y1="16" x2="21" y2="26" style="fill:none;stroke:#575756;stroke-linecap:round;stroke-linejoin:round;stroke-width:2px"/><line x1="21" y1="26" x2="11" y2="26" style="fill:none;stroke:#575756;stroke-linecap:round;stroke-linejoin:round;stroke-width:2px"/><line x1="21" y1="26" x2="21" y2="36" style="fill:none;stroke:#575756;stroke-linecap:round;stroke-linejoin:round;stroke-width:2px"/><line x1="21" y1="36" x2="11" y2="36" style="fill:none;stroke:#575756;stroke-linecap:round;stroke-linejoin:round;stroke-width:2px"/><line x1="31" y1="26" x2="21" y2="26" style="fill:none;stroke:#575756;stroke-linecap:round;stroke-linejoin:round;stroke-width:2px"/><line x1="31" y1="26" x2="31" y2="36" style="fill:none;stroke:#575756;stroke-linecap:round;stroke-linejoin:round;stroke-width:2px"/><line x1="31" y1="36" x2="21" y2="36" style="fill:none;stroke:#575756;stroke-linecap:round;stroke-linejoin:round;stroke-width:2px"/><line x1="11" y1="16" x2="16" y2="11" style="fill:none;stroke:#575756;stroke-linecap:round;stroke-linejoin:round;stroke-width:2px"/><line x1="21" y1="16" x2="26" y2="11" style="fill:none;stroke:#575756;stroke-linecap:round;stroke-linejoin:round;stroke-width:2px"/><line x1="31" y1="26" x2="36" y2="21" style="fill:none;stroke:#575756;stroke-linecap:round;stroke-linejoin:round;stroke-width:2px"/><line x1="31" y1="36" x2="36" y2="31" style="fill:none;stroke:#575756;stroke-linecap:round;stroke-linejoin:round;stroke-width:2px"/><line x1="36" y1="21" x2="36" y2="31" style="fill:none;stroke:#575756;stroke-linecap:round;stroke-linejoin:round;stroke-width:2px"/><line x1="16" y1="11" x2="26" y2="11" style="fill:none;stroke:#575756;stroke-linecap:round;stroke-linejoin:round;stroke-width:2px"/><line x1="16" y1="1" x2="16" y2="11" style="fill:none;stroke:#575756;stroke-linecap:round;stroke-linejoin:round;stroke-width:2px"/><line x1="11" y1="6" x2="1" y2="6" style="fill:#95c11f;stroke:#575756;stroke-linecap:round;stroke-linejoin:round;stroke-width:2px"/><line x1="1" y1="6" x2="6" y2="1" style="fill:#95c11f;stroke:#575756;stroke-linecap:round;stroke-linejoin:round;stroke-width:2px"/><line x1="11" y1="6" x2="16" y2="1" style="fill:#95c11f;stroke:#575756;stroke-linecap:round;stroke-linejoin:round;stroke-width:2px"/><line x1="6" y1="1" x2="16" y2="1" style="fill:#95c11f;stroke:#575756;stroke-linecap:round;stroke-linejoin:round;stroke-width:2px"/><line x1="26" y1="11" x2="26" y2="21" style="fill:none;stroke:#575756;stroke-linecap:round;stroke-linejoin:round;stroke-width:2px"/><line x1="36" y1="21" x2="26" y2="21" style="fill:none;stroke:#575756;stroke-linecap:round;stroke-linejoin:round;stroke-width:2px"/><line x1="21" y1="26" x2="26" y2="21" style="fill:none;stroke:#575756;stroke-linecap:round;stroke-linejoin:round;stroke-width:2px"/></g></svg>