<svg id="Capa_1" data-name="Capa 1" xmlns="http://www.w3.org/2000/svg" viewBox="0 0 59.17 27.49"><path d="M54.9,53.58V67.93a1.72,1.72,0,0,1-1.72,1.72H41.61a1.71,1.71,0,0,1-1.71-1.72V52.08a1.71,1.71,0,0,1,1.71-1.72H51.68" transform="translate(-39.4 -49.86)" style="fill:#fff;stroke:#6d6d6c;stroke-linecap:round;stroke-linejoin:round"/><polygon points="12.29 3.71 12.29 0.5 15.5 3.71 12.29 3.71" style="fill:#fff;stroke:#6d6d6c;stroke-linecap:round;stroke-linejoin:round"/><line x1="13.36" y1="14.43" x2="2.64" y2="14.43" style="fill:none;stroke:#6d6d6c;stroke-linecap:round;stroke-linejoin:round"/><line x1="13.36" y1="12.29" x2="2.64" y2="12.29" style="fill:none;stroke:#6d6d6c;stroke-linecap:round;stroke-linejoin:round"/><line x1="13.36" y1="10.14" x2="2.64" y2="10.14" style="fill:none;stroke:#6d6d6c;stroke-linecap:round;stroke-linejoin:round"/><line x1="13.36" y1="8" x2="2.64" y2="8" style="fill:none;stroke:#6d6d6c;stroke-linecap:round;stroke-linejoin:round"/><circle cx="8" cy="22.17" r="4.83" style="fill:#199e77;stroke:#706f6f;stroke-linecap:round;stroke-linejoin:round"/><path d="M45.48,73.87H47V70.68H45.74v-.79a3.91,3.91,0,0,0,1.56-.51h.94v4.49h1.25v1h-4Z" transform="translate(-39.4 -49.86)" style="fill:#fff;stroke:#575756;stroke-miterlimit:10;stroke-width:0.25px"/><path d="M76.48,53.58V67.93a1.72,1.72,0,0,1-1.71,1.72H63.2a1.72,1.72,0,0,1-1.72-1.72V52.08a1.72,1.72,0,0,1,1.72-1.72H73.27" transform="translate(-39.4 -49.86)" style="fill:#fff;stroke:#6d6d6c;stroke-linecap:round;stroke-linejoin:round"/><polygon points="33.87 3.71 33.87 0.5 37.09 3.71 33.87 3.71" style="fill:#fff;stroke:#6d6d6c;stroke-linecap:round;stroke-linejoin:round"/><line x1="34.94" y1="14.43" x2="24.23" y2="14.43" style="fill:none;stroke:#6d6d6c;stroke-linecap:round;stroke-linejoin:round"/><line x1="34.94" y1="12.29" x2="24.23" y2="12.29" style="fill:none;stroke:#6d6d6c;stroke-linecap:round;stroke-linejoin:round"/><line x1="34.94" y1="10.14" x2="24.23" y2="10.14" style="fill:none;stroke:#6d6d6c;stroke-linecap:round;stroke-linejoin:round"/><line x1="34.94" y1="8" x2="24.23" y2="8" style="fill:none;stroke:#6d6d6c;stroke-linecap:round;stroke-linejoin:round"/><circle cx="29.59" cy="22.17" r="4.83" style="fill:#199e77;stroke:#706f6f;stroke-linecap:round;stroke-linejoin:round"/><path d="M66.88,74.17c1.58-1.33,2.64-2.27,2.64-3.06,0-.53-.33-.83-.91-.83a1.68,1.68,0,0,0-1.11.56l-.68-.69a2.52,2.52,0,0,1,2-.87A1.76,1.76,0,0,1,70.74,71c0,.93-1,1.92-2,2.85a9,9,0,0,1,1-.07H71V74.9H66.88Z" transform="translate(-39.4 -49.86)" style="fill:#fff;stroke:#575756;stroke-miterlimit:10;stroke-width:0.25px"/><path d="M98.07,53.58V67.93a1.72,1.72,0,0,1-1.72,1.72H84.78a1.71,1.71,0,0,1-1.71-1.72V52.08a1.71,1.71,0,0,1,1.71-1.72H94.85" transform="translate(-39.4 -49.86)" style="fill:#fff;stroke:#6d6d6c;stroke-linecap:round;stroke-linejoin:round"/><polygon points="55.46 3.71 55.46 0.5 58.67 3.71 55.46 3.71" style="fill:#fff;stroke:#6d6d6c;stroke-linecap:round;stroke-linejoin:round"/><line x1="56.53" y1="14.43" x2="45.81" y2="14.43" style="fill:none;stroke:#6d6d6c;stroke-linecap:round;stroke-linejoin:round"/><line x1="56.53" y1="12.29" x2="45.81" y2="12.29" style="fill:none;stroke:#6d6d6c;stroke-linecap:round;stroke-linejoin:round"/><line x1="56.53" y1="10.14" x2="45.81" y2="10.14" style="fill:none;stroke:#6d6d6c;stroke-linecap:round;stroke-linejoin:round"/><line x1="56.53" y1="8" x2="45.81" y2="8" style="fill:none;stroke:#6d6d6c;stroke-linecap:round;stroke-linejoin:round"/><circle cx="51.17" cy="22.17" r="4.83" style="fill:#199e77;stroke:#706f6f;stroke-linecap:round;stroke-linejoin:round"/><path d="M88.32,74.22l.59-.81a2.07,2.07,0,0,0,1.35.56c.6,0,1-.23,1-.66s-.37-.78-1.66-.78v-.9c1.08,0,1.48-.3,1.48-.74s-.32-.61-.81-.61a1.81,1.81,0,0,0-1.17.48L88.48,70a2.92,2.92,0,0,1,1.87-.71c1.21,0,2,.54,2,1.51,0,.57-.39,1-1,1.23v0a1.44,1.44,0,0,1,1.23,1.35c0,1-1,1.6-2.19,1.6A2.73,2.73,0,0,1,88.32,74.22Z" transform="translate(-39.4 -49.86)" style="fill:#fff;stroke:#575756;stroke-miterlimit:10;stroke-width:0.25px"/></svg>