<svg id="Layer_6" data-name="Layer 6" xmlns="http://www.w3.org/2000/svg" viewBox="0 0 148.99 53.86"><path d="M11.78,39.33c-1.9-1.18-6.48-4-9.13-14.18S.26,12.72,6.24,8.06C13.35,4,16.77,6.68,20.89,8.84s2.3,11.8,4.7,16.48,8.91,10.42,5.35,14.35a11.4,11.4,0,0,1-9.64,3.51C17.39,42.83,14.3,40.91,11.78,39.33Z" transform="translate(-1.04 1.86)" style="fill:#199e77;opacity:0.2"/><path d="M13,6h-.17c-.33,0-.66,0-1,.07h-.36a12.1,12.1,0,0,0-2.37.65l.35.93A10.11,10.11,0,0,1,13,7V6ZM5.56,8.61a17.43,17.43,0,0,0-2.87,2.78l.79.61A16.74,16.74,0,0,1,6.19,9.38l-.63-.77ZM1.13,15A11.22,11.22,0,0,0,1,16.48H1v0h0v0h0v0h0v0h0c0,.31,0,.64.07,1h0v0h0v0h0v0h0c0,.23.07.47.1.71l1-.15a13,13,0,0,1-.14-3.7l-1-.13Zm1.92,7.66-1,.24c.17.7.36,1.44.57,2.23h0v0h0v0h0v0h0v0h0c0,.14.07.28.11.42h0l0,.05h0v0h0v0h0v0h0v0h0v0H3v0h.05v0h0l0,.05.95-.29c-.15-.51-.3-1-.44-1.59q-.31-1.18-.57-2.22ZM5.4,30.13l-.91.41a24.72,24.72,0,0,0,1.88,3.52l.84-.55A23.86,23.86,0,0,1,5.4,30.13Zm4.19,6.3-.69.72c.36.34.7.63,1,.89h0c.33.26.63.49.91.68h0l.09.06h.4l0,0h0l.07,0h0l.07,0h0l0,0h0l.23.15,0,0,.21.14.08,0,.53-.85-.33-.2a15.72,15.72,0,0,1-2.71-2ZM16,40.61l-.43.9.56.26H17l0,0h1.11c.4.13.82.25,1.24.35l.23-1A17.15,17.15,0,0,1,16,40.61Zm10.77.78a10.78,10.78,0,0,1-3.54.83l.06,1a11.52,11.52,0,0,0,2.5-.43h.44c.33-.11.64-.22.94-.35l-.4-.92ZM32,36.57l-1,.1A2.86,2.86,0,0,1,30.2,39c-.09.1-.22.24-.39.4l.69.72c.19-.18.34-.34.44-.45h0l0,0h0a3.8,3.8,0,0,0,.92-3Zm-3.62-7-.82.58c.83,1.17,1.57,2.23,2.17,3.25l.86-.5c-.64-1.1-1.43-2.22-2.21-3.33Zm-3.67-7-1,.2a12,12,0,0,0,1,3.07c.15.3.33.62.53.95l.86-.51c-.19-.3-.35-.6-.51-.9h0a11.4,11.4,0,0,1-.9-2.77Zm-1-7.94-1,.15c.15,1,.26,2.14.37,3.22l.07.71,1-.1c0-.19,0-.38-.05-.56s0-.37-.05-.55h0c-.08-.89-.18-1.78-.3-2.63h0v0h0v0h0v-.06Zm-4-6.39-.47.88.08,0,1.15.61a3.16,3.16,0,0,1,1.31,1.46l.9-.45a4.83,4.83,0,0,0-.86-1.23h0l0,0H20.69l-1-.56ZM13,6h0V7h0a8.55,8.55,0,0,1,2.77.48l.32-.95A9.45,9.45,0,0,0,13.14,6H13Z" transform="translate(-1.04 1.86)" style="fill:#199e77"/><circle cx="10.46" cy="12.36" r="2.5" style="fill:#199e77"/><circle cx="19.46" cy="30.36" r="2.5" style="fill:#199e77"/><circle cx="12.46" cy="30.36" r="2.5" style="fill:#199e77"/><circle cx="16.46" cy="37.36" r="2.5" style="fill:#199e77"/><circle cx="18.46" cy="21.36" r="2.5" style="fill:#199e77"/><circle cx="10.46" cy="21.36" r="2.5" style="fill:#199e77"/><circle cx="17.46" cy="15.36" r="2.5" style="fill:#199e77"/><path d="M87.2,8.52" transform="translate(-1.04 1.86)" style="fill:#7470b2;fill-opacity:0.46;stroke:#575756;stroke-miterlimit:10"/><circle cx="25.46" cy="39.36" r="2.5" style="fill:#199e77"/><circle cx="6.46" cy="27.36" r="2.5" style="fill:#199e77"/><circle cx="14.46" cy="25.36" r="2.5" style="fill:#199e77"/><circle cx="6.46" cy="16.36" r="2.5" style="fill:#199e77"/><circle cx="34.46" cy="8.36" r="2.5" style="fill:#575756"/><circle cx="48.46" cy="20.36" r="2.5" style="fill:#d86013"/><circle cx="32.46" cy="26.36" r="2.5" style="fill:#575756"/><circle cx="38.46" cy="15.36" r="2.5" style="fill:#575756"/><circle cx="37.46" cy="33.36" r="2.5" style="fill:#575756"/><circle cx="41.46" cy="39.36" r="2.5" style="fill:#575756"/><circle cx="32.46" cy="50.36" r="2.5" style="fill:#575756"/><circle cx="16.46" cy="4.36" r="2.5" style="fill:#575756"/><circle cx="10.46" cy="51.36" r="2.5" style="fill:#575756"/><circle cx="51.46" cy="7.36" r="2.5" style="fill:#d86013"/><circle cx="59.46" cy="9.36" r="2.5" style="fill:#d86013"/><circle cx="55.46" cy="13.36" r="2.5" style="fill:#d86013"/><circle cx="51.46" cy="27.36" r="2.5" style="fill:#d86013"/><circle cx="29.46" cy="14.36" r="2.5" style="fill:#575756"/><circle cx="47.46" cy="12.36" r="2.5" style="fill:#d86013"/><circle cx="55.46" cy="20.36" r="2.5" style="fill:#d86013"/><circle cx="56.46" cy="4.36" r="2.5" style="fill:#d86013"/><circle cx="60.46" cy="16.36" r="2.5" style="fill:#d86013"/><circle cx="57.46" cy="25.36" r="2.5" style="fill:#d86013"/><circle cx="7.46" cy="43.36" r="2.5" style="fill:#575756"/><path d="M44,11.39C45.44-.27,52.64-3.8,60.32-.9S66.07,10.9,65,15.45,62.3,31.27,54.65,30.13,42.63,23.06,44,11.39Z" transform="translate(-1.04 1.86)" style="fill:#d86013;opacity:0.2"/><path d="M55.39-1.86h-.17a10.45,10.45,0,0,0-2.32.29h-.2a8.61,8.61,0,0,0-1.21.41l.38.92a9.12,9.12,0,0,1,3.52-.67v-1Zm-7.18,3a11.45,11.45,0,0,0-1.34,1.69h0l0,0h0l0,0h0v0h-.15v0h0l0,0h0l0,0h0l0,0h0a10.08,10.08,0,0,0-.56,1h0l0,0h0l.9.44a11.86,11.86,0,0,1,2.08-3l-.72-.7Zm-3.6,7h0v.05h0v0h0v0h0v0h0v0h0v0h0v.05h0l0,.09h0c-.14.62-.27,1.27-.37,1.95h0v0h0v0H44v0h0v0h0a1.49,1.49,0,0,1,0,.21h0v0h0v0h0c0,.1,0,.2,0,.3l1,.1c0-.23,0-.47.08-.71a27.67,27.67,0,0,1,.55-3.1l-1-.24Zm.17,7.92-1,0h0v0h0v0h0v0h0v0h0v0h0v0h0v0h0v0h0v0h0v0h0v0h0v0h0v0h0v0h0v0h0v0h0v0h0v0h0v0h0v0h0v0h0v0h0v0h0v0h0v0h0v0h0v0h0v0h0v0h0v0h.06v0h0v0h0v0h0v0h0v0h0v0h0v0h0c.06.49.14,1,.23,1.42l1-.2a21.08,21.08,0,0,1-.4-3.79Zm1.59,7.32-.89.45c.07.15.15.29.22.43h0l0,0h0l0,0h0v0h0v0h.13v0H46v0h0l0,0h0v0h0l0,0h0l0,0h0c.2.32.41.62.64.92h0l0,0h0v0h0l0,0h0l0,0h0v0h0v0h0v0h0v0h0l0,0h.52l0,0h.07v0h0l0,0h0l0,0h0l.05,0h0l.21.21.69-.73a10.27,10.27,0,0,1-2.16-2.92Zm5.21,4.87-.38.92.53.21h.87l.4.11h0l.09,0h1.58l.39,0,.09-1-.36,0a14.11,14.11,0,0,1-3.21-.87Zm9.12-2.43a7.73,7.73,0,0,1-2.36,2.6l.54.84.45-.31h.35l0,0h0a9.08,9.08,0,0,0,1.59-1.87h0v0h.11l0,0h0l.13-.2-.86-.52Zm2.61-7.2a38.93,38.93,0,0,1-1.06,3.75l1,.32.12-.37h.1v0h0v0h0v0h0v0h0v0h0v0h0v0h0c.3-1,.55-2,.76-2.87l-1-.23Zm1.56-7.74c-.18,1.4-.45,2.73-.7,3.84l1,.22c0-.14.07-.29.1-.44h0v0h0v0h0c.22-1,.45-2.17.6-3.39l-1-.13ZM65,3.19l-.9.44a9.83,9.83,0,0,1,.9,3.5L66,7a11.38,11.38,0,0,0-.51-2.66h0v0h0v0h0v0h0v0h0v0h0v0h0v0h-.29v0h0v0h0v0h0v0h0v0h0l0,0h0v0h0l0-.08ZM58.77-1.4l-.26,1c.48.13,1,.29,1.45.47a9.09,9.09,0,0,1,1.89,1l.57-.82a9.24,9.24,0,0,0-2-1.06h-.25l-.07,0h-.23c-.36-.12-.72-.23-1.07-.32Z" transform="translate(-1.04 1.86)" style="fill:#d86013"/><path d="M95.78,39.33c-1.9-1.18-6.48-4-9.13-14.18S84.26,12.72,90.24,8.06c7.11-4.06,10.53-1.38,14.65.78s2.3,11.8,4.7,16.48,8.91,10.42,5.35,14.35a11.4,11.4,0,0,1-9.64,3.51C101.39,42.83,98.3,40.91,95.78,39.33Z" transform="translate(-1.04 1.86)" style="fill:#7470b2;opacity:0.2"/><path d="M97,6h-.17c-.33,0-.66,0-1,.07h-.36a12.1,12.1,0,0,0-2.37.65l.35.93A10.11,10.11,0,0,1,97,7V6Zm-7.4,2.66a21.13,21.13,0,0,0-2,1.82h-.1c-.27.29-.51.57-.74.86l.79.61a16.74,16.74,0,0,1,2.71-2.62l-.63-.77ZM85.13,15h0v0h0A14.69,14.69,0,0,0,85.27,19l1-.15a13,13,0,0,1-.14-3.7l-1-.13Zm1.92,7.66-1,.24c.17.7.36,1.44.57,2.23h0v0h0c.15.55.29,1.08.45,1.58l1-.29c-.15-.51-.3-1-.44-1.59q-.32-1.18-.57-2.22Zm2.35,7.45-.91.41q.54,1.23,1.11,2.25h0l0,0h0v0h0v0h0v0h.08v0h0v0h0l0,.08h0q.24.4.48.78l.84-.55a23.86,23.86,0,0,1-1.81-3.38Zm4.19,6.3-.69.72A15.64,15.64,0,0,0,95,38.84h0l0,0h.1l0,0h.2l.06,0h0l0,0h0l0,0h0l.27.17.07,0,.15.09h0l.11.07.53-.85-.33-.2a15.72,15.72,0,0,1-2.71-2ZM100,40.61l-.43.9q.56.27,1.14.51h.46a16.31,16.31,0,0,0,2.15.67l.23-1A17.15,17.15,0,0,1,100,40.61Zm10.77.78a10.78,10.78,0,0,1-3.54.83l.06,1a11.94,11.94,0,0,0,3.61-.8h.27l-.4-.92ZM116,36.57l-1,.1A2.86,2.86,0,0,1,114.2,39c-.09.1-.22.24-.39.4l.69.72c.19-.18.34-.34.44-.45H115v0h0l0,0h0l0,0h0l0,0h0l0,0h0l0,0h0l0,0h0v0h0v0h.07v0h.07v0h0l0,0h0a3.54,3.54,0,0,0,.35-1.42h0v0h0v0h0v0h0a3.25,3.25,0,0,0,0-.44Zm-3.62-7-.82.58c.83,1.17,1.57,2.23,2.17,3.25l.86-.5c-.3-.53-.64-1.06-1-1.59h0l-1.19-1.71Zm-3.67-7-1,.2a12,12,0,0,0,1,3.07c.15.3.33.62.53.95l.86-.51c-.17-.27-.32-.54-.46-.81h-.09a11.51,11.51,0,0,1-.88-2.73Zm-1-7.94-1,.15c.15,1,.26,2.14.37,3.22l.07.71,1-.1-.06-.64v-.07c0-.13,0-.27,0-.4h0c-.06-.69-.13-1.37-.22-2h0v0h0c0-.22-.06-.45-.09-.67Zm-4-6.39-.47.88.08,0,1.15.61a3.16,3.16,0,0,1,1.31,1.46l.9-.45a6.82,6.82,0,0,0-.42-.7h-1.52l-1-.56ZM97,6h0V7h0a8.55,8.55,0,0,1,2.77.48l.32-.95A9.8,9.8,0,0,0,97.19,6H97Z" transform="translate(-1.04 1.86)" style="fill:#7470b2"/><circle cx="94.46" cy="12.36" r="2.5" style="fill:#7470b2"/><circle cx="103.46" cy="30.36" r="2.5" style="fill:#7470b2"/><circle cx="96.46" cy="30.36" r="2.5" style="fill:#7470b2"/><circle cx="100.46" cy="37.36" r="2.5" style="fill:#7470b2"/><circle cx="102.46" cy="21.36" r="2.5" style="fill:#7470b2"/><circle cx="94.46" cy="21.36" r="2.5" style="fill:#7470b2"/><circle cx="101.46" cy="15.36" r="2.5" style="fill:#7470b2"/><circle cx="109.46" cy="39.36" r="2.5" style="fill:#7470b2"/><circle cx="90.46" cy="27.36" r="2.5" style="fill:#7470b2"/><circle cx="98.46" cy="25.36" r="2.5" style="fill:#7470b2"/><circle cx="90.46" cy="16.36" r="2.5" style="fill:#7470b2"/><circle cx="118.46" cy="8.36" r="2.5" style="fill:#575756"/><circle cx="132.46" cy="20.36" r="2.5" style="fill:#7470b2"/><circle cx="116.46" cy="26.36" r="2.5" style="fill:#575756"/><circle cx="122.46" cy="15.36" r="2.5" style="fill:#575756"/><circle cx="121.46" cy="33.36" r="2.5" style="fill:#575756"/><circle cx="125.46" cy="39.36" r="2.5" style="fill:#575756"/><circle cx="116.46" cy="50.36" r="2.5" style="fill:#575756"/><circle cx="100.46" cy="4.36" r="2.5" style="fill:#575756"/><circle cx="94.46" cy="51.36" r="2.5" style="fill:#575756"/><circle cx="135.46" cy="7.36" r="2.5" style="fill:#7470b2"/><circle cx="143.46" cy="9.36" r="2.5" style="fill:#7470b2"/><circle cx="139.46" cy="13.36" r="2.5" style="fill:#7470b2"/><circle cx="135.46" cy="27.36" r="2.5" style="fill:#7470b2"/><circle cx="113.46" cy="14.36" r="2.5" style="fill:#575756"/><circle cx="131.46" cy="12.36" r="2.5" style="fill:#7470b2"/><circle cx="139.46" cy="20.36" r="2.5" style="fill:#7470b2"/><circle cx="140.46" cy="4.36" r="2.5" style="fill:#7470b2"/><circle cx="144.46" cy="16.36" r="2.5" style="fill:#7470b2"/><circle cx="141.46" cy="25.36" r="2.5" style="fill:#7470b2"/><circle cx="91.46" cy="43.36" r="2.5" style="fill:#575756"/><path d="M128,11.39C129.44-.27,136.64-3.8,144.32-.9s5.75,11.8,4.71,16.35-2.73,15.82-10.38,14.68S126.63,23.06,128,11.39Z" transform="translate(-1.04 1.86)" style="fill:#7470b2;opacity:0.2"/><path d="M139.39-1.86h-.17a10.53,10.53,0,0,0-2.65.37h-.2l-.08,0h0l-.06,0h0c-.25.08-.5.17-.74.27l.38.92a9.12,9.12,0,0,1,3.52-.67v-1Zm-7.18,3a12.66,12.66,0,0,0-2,2.85h0l0,.05h0l0,0h0v0h0v0H130v0h0l0,0h0l0,0h0l.9.44a11.86,11.86,0,0,1,2.08-3l-.72-.7Zm-3.6,7-.09.4h0v0h-.1c-.1.48-.19,1-.27,1.49h0v0h0v0H128v0h0l0,.27h0v0h0v0h0l0,.27,1,.1c0-.23.05-.47.08-.71a27.67,27.67,0,0,1,.55-3.1l-1-.24Zm.17,7.92-1,0c0,.66,0,1.3.11,1.92h0v0h0v0h0v0h0v0h0v0h0c.07.51.15,1,.24,1.46l1-.2a21.08,21.08,0,0,1-.4-3.79Zm1.59,7.32-.89.45A11.63,11.63,0,0,0,130.81,26h0l0,0h0l0,0h0v0h0v0h0v0h.19v0h0v0h0l0,0h0l0,0h0c.2.22.41.44.62.64l.69-.73a10.27,10.27,0,0,1-2.16-2.92Zm5.21,4.87-.38.92a14.39,14.39,0,0,0,1.92.63h1.55l.39,0,.09-1-.36,0a14.11,14.11,0,0,1-3.21-.87Zm9.12-2.43a7.73,7.73,0,0,1-2.36,2.6l.54.84a6.21,6.21,0,0,0,1-.74h0l.06-.05h0l0,0h0l0,0h0l0,0h0l0,0h.53a10.69,10.69,0,0,0,1.06-1.48l-.86-.52Zm2.61-7.2a38.93,38.93,0,0,1-1.06,3.75l.95.32.18-.54h0v0h0v0h.09v0h0v0h0v0h0c.3-1,.55-2,.76-2.87l-1-.23Zm1.56-7.74c-.18,1.4-.45,2.73-.7,3.84l1,.22,0-.09h0c.2-.91.42-1.95.59-3.06h0l.09-.67-1-.13ZM149,3.19l-.9.44a9.83,9.83,0,0,1,.9,3.5L150,7a12.2,12.2,0,0,0-.43-2.4h0v0h0v0h-.18V4h0v0h0v0h0v0h0v0H149ZM142.77-1.4l-.26,1c.48.13,1,.29,1.45.47a9.09,9.09,0,0,1,1.89,1l.57-.82a6.89,6.89,0,0,0-.64-.4h-.4a9,9,0,0,0-1-.44h-.09a15.07,15.07,0,0,0-1.53-.49Z" transform="translate(-1.04 1.86)" style="fill:#7470b2"/><line x1="74.93" y1="26.86" x2="68.96" y2="26.86" style="fill:none;stroke:#575756;stroke-linecap:round;stroke-linejoin:round;stroke-width:2px"/><polygon points="73.91 23.38 79.96 26.86 73.91 30.36 73.91 23.38" style="fill:#575756"/></svg>