<svg xmlns="http://www.w3.org/2000/svg" viewBox="0 0 90 138"><g id="Layer_3" data-name="Layer 3"><path d="M191.5,24.5" transform="translate(-19.26 -4)" style="fill:#199e77;fill-opacity:0.46;stroke:#575756;stroke-miterlimit:10"/></g><g id="Layer_2" data-name="Layer 2"><line x1="17.5" y1="1.5" x2="17.5" y2="61.5" style="fill:none;stroke:#575756;stroke-linecap:round;stroke-linejoin:round;stroke-width:3px"/><line x1="37.5" y1="1.5" x2="37.5" y2="61.5" style="fill:none;stroke:#575756;stroke-linecap:round;stroke-linejoin:round;stroke-width:3px"/><line x1="57.5" y1="1.5" x2="57.5" y2="61.5" style="fill:none;stroke:#575756;stroke-linecap:round;stroke-linejoin:round;stroke-width:3px"/><rect x="2.5" y="3.5" width="85" height="8" style="fill:#575756;stroke:#575756;stroke-linecap:round;stroke-linejoin:round;stroke-width:3px"/><line x1="2.5" y1="21.5" x2="87.5" y2="21.5" style="fill:none;stroke:#575756;stroke-linecap:round;stroke-linejoin:round;stroke-width:3px"/><line x1="2.5" y1="31.5" x2="87.5" y2="31.5" style="fill:none;stroke:#575756;stroke-linecap:round;stroke-linejoin:round;stroke-width:3px"/><line x1="2.5" y1="41.5" x2="87.5" y2="41.5" style="fill:none;stroke:#575756;stroke-linecap:round;stroke-linejoin:round;stroke-width:3px"/><line x1="2.5" y1="51.5" x2="87.5" y2="51.5" style="fill:none;stroke:#575756;stroke-linecap:round;stroke-linejoin:round;stroke-width:3px"/><rect x="1.5" y="1.5" width="87" height="60" rx="2" style="fill:none;stroke:#575756;stroke-linecap:round;stroke-linejoin:round;stroke-width:3px"/><line x1="17.5" y1="76.5" x2="17.5" y2="136.5" style="fill:none;stroke:#575756;stroke-linecap:round;stroke-linejoin:round;stroke-width:3px"/><line x1="37.5" y1="76.5" x2="37.5" y2="136.5" style="fill:none;stroke:#575756;stroke-linecap:round;stroke-linejoin:round;stroke-width:3px"/><line x1="57.5" y1="76.5" x2="57.5" y2="136.5" style="fill:none;stroke:#575756;stroke-linecap:round;stroke-linejoin:round;stroke-width:3px"/><rect x="2.5" y="78.5" width="85" height="8" style="fill:#575756;stroke:#575756;stroke-linecap:round;stroke-linejoin:round;stroke-width:3px"/><line x1="2.5" y1="96.5" x2="87.5" y2="96.5" style="fill:none;stroke:#575756;stroke-linecap:round;stroke-linejoin:round;stroke-width:3px"/><line x1="2.5" y1="106.5" x2="87.5" y2="106.5" style="fill:none;stroke:#575756;stroke-linecap:round;stroke-linejoin:round;stroke-width:3px"/><line x1="2.5" y1="116.5" x2="87.5" y2="116.5" style="fill:none;stroke:#575756;stroke-linecap:round;stroke-linejoin:round;stroke-width:3px"/><line x1="2.5" y1="126.5" x2="87.5" y2="126.5" style="fill:none;stroke:#575756;stroke-linecap:round;stroke-linejoin:round;stroke-width:3px"/><rect x="1.5" y="76.5" width="87" height="60" rx="2" style="fill:none;stroke:#575756;stroke-linecap:round;stroke-linejoin:round;stroke-width:3px"/></g><g id="Layer_5" data-name="Layer 5"><path d="M64.26,60.5" transform="translate(-19.26 -4)" style="fill:#199e77;stroke:#575756;stroke-linecap:round;stroke-linejoin:round;stroke-width:2px"/><circle cx="45" cy="71.5" r="24.5" style="fill:#199e77;stroke:#575756;stroke-miterlimit:10;stroke-width:2px"/><polygon points="42.5 59 47.5 59 47.5 69 57.5 69 57.5 74 47.5 74 47.5 84 42.5 84 42.5 74 32.5 74 32.5 69 42.5 69 42.5 59" style="fill:#fff;stroke:#575756;stroke-linecap:round;stroke-linejoin:round;stroke-width:2px"/></g></svg>