<svg id="Capa_1" data-name="Capa 1" xmlns="http://www.w3.org/2000/svg" viewBox="0 0 62 47.36"><path d="M67.83,53.58V67.93a1.72,1.72,0,0,1-1.71,1.72H54.54a1.72,1.72,0,0,1-1.71-1.72V52.08a1.72,1.72,0,0,1,1.71-1.72H64.62" transform="translate(-29.52 -49.86)" style="fill:#fff;stroke:#6d6d6c;stroke-linecap:round;stroke-linejoin:round"/><polygon points="35.1 3.71 35.1 0.5 38.31 3.71 35.1 3.71" style="fill:#fff;stroke:#6d6d6c;stroke-linecap:round;stroke-linejoin:round"/><rect x="25.45" y="6.93" width="10.71" height="9.64" style="fill:#fff;stroke:#6d6d6c;stroke-linecap:round;stroke-linejoin:round"/><line x1="36.17" y1="14.43" x2="25.45" y2="14.43" style="fill:none;stroke:#6d6d6c;stroke-linecap:round;stroke-linejoin:round"/><line x1="36.17" y1="12.29" x2="25.45" y2="12.29" style="fill:none;stroke:#6d6d6c;stroke-linecap:round;stroke-linejoin:round"/><line x1="36.17" y1="10.14" x2="25.45" y2="10.14" style="fill:none;stroke:#6d6d6c;stroke-linecap:round;stroke-linejoin:round"/><line x1="36.17" y1="8" x2="25.45" y2="8" style="fill:none;stroke:#6d6d6c;stroke-linecap:round;stroke-linejoin:round"/><line x1="28.67" y1="16.57" x2="28.67" y2="8" style="fill:none;stroke:#6d6d6c;stroke-linecap:round;stroke-linejoin:round"/><line x1="32.95" y1="16.57" x2="32.95" y2="8" style="fill:none;stroke:#6d6d6c;stroke-linecap:round;stroke-linejoin:round"/><rect x="25.45" y="6.93" width="10.71" height="1.07" style="fill:#6d6d6c;stroke:#6d6d6c;stroke-linecap:round;stroke-linejoin:round"/><path d="M45,53.58V67.93a1.72,1.72,0,0,1-1.72,1.72H31.73A1.72,1.72,0,0,1,30,67.93V52.08a1.72,1.72,0,0,1,1.71-1.72H41.8" transform="translate(-29.52 -49.86)" style="fill:#fff;stroke:#6d6d6c;stroke-linecap:round;stroke-linejoin:round"/><polygon points="12.29 3.71 12.29 0.5 15.5 3.71 12.29 3.71" style="fill:#fff;stroke:#6d6d6c;stroke-linecap:round;stroke-linejoin:round"/><rect x="2.64" y="6.93" width="10.71" height="9.64" style="fill:#fff;stroke:#6d6d6c;stroke-linecap:round;stroke-linejoin:round"/><line x1="13.36" y1="14.43" x2="2.64" y2="14.43" style="fill:none;stroke:#6d6d6c;stroke-linecap:round;stroke-linejoin:round"/><line x1="13.36" y1="12.29" x2="2.64" y2="12.29" style="fill:none;stroke:#6d6d6c;stroke-linecap:round;stroke-linejoin:round"/><line x1="13.36" y1="10.14" x2="2.64" y2="10.14" style="fill:none;stroke:#6d6d6c;stroke-linecap:round;stroke-linejoin:round"/><line x1="13.36" y1="8" x2="2.64" y2="8" style="fill:none;stroke:#6d6d6c;stroke-linecap:round;stroke-linejoin:round"/><line x1="5.86" y1="16.57" x2="5.86" y2="8" style="fill:none;stroke:#6d6d6c;stroke-linecap:round;stroke-linejoin:round"/><line x1="10.14" y1="16.57" x2="10.14" y2="8" style="fill:none;stroke:#6d6d6c;stroke-linecap:round;stroke-linejoin:round"/><rect x="2.64" y="6.93" width="10.71" height="1.07" style="fill:#6d6d6c;stroke:#6d6d6c;stroke-linecap:round;stroke-linejoin:round"/><path d="M91,53.58V67.93a1.72,1.72,0,0,1-1.72,1.72H77.73A1.72,1.72,0,0,1,76,67.93V52.08a1.72,1.72,0,0,1,1.71-1.72H87.8" transform="translate(-29.52 -49.86)" style="fill:#fff;stroke:#6d6d6c;stroke-linecap:round;stroke-linejoin:round"/><polygon points="58.29 3.71 58.29 0.5 61.5 3.71 58.29 3.71" style="fill:#fff;stroke:#6d6d6c;stroke-linecap:round;stroke-linejoin:round"/><rect x="48.64" y="6.93" width="10.71" height="9.64" style="fill:#fff;stroke:#6d6d6c;stroke-linecap:round;stroke-linejoin:round"/><line x1="59.36" y1="14.43" x2="48.64" y2="14.43" style="fill:none;stroke:#6d6d6c;stroke-linecap:round;stroke-linejoin:round"/><line x1="59.36" y1="12.29" x2="48.64" y2="12.29" style="fill:none;stroke:#6d6d6c;stroke-linecap:round;stroke-linejoin:round"/><line x1="59.36" y1="10.14" x2="48.64" y2="10.14" style="fill:none;stroke:#6d6d6c;stroke-linecap:round;stroke-linejoin:round"/><line x1="59.36" y1="8" x2="48.64" y2="8" style="fill:none;stroke:#6d6d6c;stroke-linecap:round;stroke-linejoin:round"/><line x1="51.86" y1="16.57" x2="51.86" y2="8" style="fill:none;stroke:#6d6d6c;stroke-linecap:round;stroke-linejoin:round"/><line x1="56.14" y1="16.57" x2="56.14" y2="8" style="fill:none;stroke:#6d6d6c;stroke-linecap:round;stroke-linejoin:round"/><rect x="48.64" y="6.93" width="10.71" height="1.07" style="fill:#6d6d6c;stroke:#6d6d6c;stroke-linecap:round;stroke-linejoin:round"/><path d="M67.83,80.65V95a1.72,1.72,0,0,1-1.71,1.72H54.54A1.72,1.72,0,0,1,52.83,95V79.15a1.72,1.72,0,0,1,1.71-1.72H64.62" transform="translate(-29.52 -49.86)" style="fill:#fff;stroke:#6d6d6c;stroke-linecap:round;stroke-linejoin:round"/><polygon points="35.1 30.78 35.1 27.57 38.31 30.78 35.1 30.78" style="fill:#fff;stroke:#6d6d6c;stroke-linecap:round;stroke-linejoin:round"/><rect x="25.45" y="34" width="10.71" height="9.64" style="fill:#fff;stroke:#6d6d6c;stroke-linecap:round;stroke-linejoin:round"/><line x1="36.17" y1="41.5" x2="25.45" y2="41.5" style="fill:none;stroke:#6d6d6c;stroke-linecap:round;stroke-linejoin:round"/><line x1="36.17" y1="39.36" x2="25.45" y2="39.36" style="fill:none;stroke:#6d6d6c;stroke-linecap:round;stroke-linejoin:round"/><line x1="36.17" y1="37.21" x2="25.45" y2="37.21" style="fill:none;stroke:#6d6d6c;stroke-linecap:round;stroke-linejoin:round"/><line x1="36.17" y1="35.07" x2="25.45" y2="35.07" style="fill:none;stroke:#6d6d6c;stroke-linecap:round;stroke-linejoin:round"/><line x1="28.67" y1="43.64" x2="28.67" y2="35.07" style="fill:none;stroke:#6d6d6c;stroke-linecap:round;stroke-linejoin:round"/><line x1="32.95" y1="43.64" x2="32.95" y2="35.07" style="fill:none;stroke:#6d6d6c;stroke-linecap:round;stroke-linejoin:round"/><rect x="25.45" y="34" width="10.71" height="1.07" style="fill:#6d6d6c;stroke:#6d6d6c;stroke-linecap:round;stroke-linejoin:round"/><path d="M45,80.65V95a1.72,1.72,0,0,1-1.72,1.72H31.73A1.72,1.72,0,0,1,30,95V79.15a1.72,1.72,0,0,1,1.71-1.72H41.8" transform="translate(-29.52 -49.86)" style="fill:#fff;stroke:#6d6d6c;stroke-linecap:round;stroke-linejoin:round"/><polygon points="12.29 30.78 12.29 27.57 15.5 30.78 12.29 30.78" style="fill:#fff;stroke:#6d6d6c;stroke-linecap:round;stroke-linejoin:round"/><rect x="2.64" y="34" width="10.71" height="9.64" style="fill:#fff;stroke:#6d6d6c;stroke-linecap:round;stroke-linejoin:round"/><line x1="13.36" y1="41.5" x2="2.64" y2="41.5" style="fill:none;stroke:#6d6d6c;stroke-linecap:round;stroke-linejoin:round"/><line x1="13.36" y1="39.36" x2="2.64" y2="39.36" style="fill:none;stroke:#6d6d6c;stroke-linecap:round;stroke-linejoin:round"/><line x1="13.36" y1="37.21" x2="2.64" y2="37.21" style="fill:none;stroke:#6d6d6c;stroke-linecap:round;stroke-linejoin:round"/><line x1="13.36" y1="35.07" x2="2.64" y2="35.07" style="fill:none;stroke:#6d6d6c;stroke-linecap:round;stroke-linejoin:round"/><line x1="5.86" y1="43.64" x2="5.86" y2="35.07" style="fill:none;stroke:#6d6d6c;stroke-linecap:round;stroke-linejoin:round"/><line x1="10.14" y1="43.64" x2="10.14" y2="35.07" style="fill:none;stroke:#6d6d6c;stroke-linecap:round;stroke-linejoin:round"/><rect x="2.64" y="34" width="10.71" height="1.07" style="fill:#6d6d6c;stroke:#6d6d6c;stroke-linecap:round;stroke-linejoin:round"/><path d="M91,80.65V95a1.72,1.72,0,0,1-1.72,1.72H77.73A1.72,1.72,0,0,1,76,95V79.15a1.72,1.72,0,0,1,1.71-1.72H87.8" transform="translate(-29.52 -49.86)" style="fill:#fff;stroke:#6d6d6c;stroke-linecap:round;stroke-linejoin:round"/><polygon points="58.29 30.78 58.29 27.57 61.5 30.78 58.29 30.78" style="fill:#fff;stroke:#6d6d6c;stroke-linecap:round;stroke-linejoin:round"/><rect x="48.64" y="34" width="10.71" height="9.64" style="fill:#fff;stroke:#6d6d6c;stroke-linecap:round;stroke-linejoin:round"/><line x1="59.36" y1="41.5" x2="48.64" y2="41.5" style="fill:none;stroke:#6d6d6c;stroke-linecap:round;stroke-linejoin:round"/><line x1="59.36" y1="39.36" x2="48.64" y2="39.36" style="fill:none;stroke:#6d6d6c;stroke-linecap:round;stroke-linejoin:round"/><line x1="59.36" y1="37.21" x2="48.64" y2="37.21" style="fill:none;stroke:#6d6d6c;stroke-linecap:round;stroke-linejoin:round"/><line x1="59.36" y1="35.07" x2="48.64" y2="35.07" style="fill:none;stroke:#6d6d6c;stroke-linecap:round;stroke-linejoin:round"/><line x1="51.86" y1="43.64" x2="51.86" y2="35.07" style="fill:none;stroke:#6d6d6c;stroke-linecap:round;stroke-linejoin:round"/><line x1="56.14" y1="43.64" x2="56.14" y2="35.07" style="fill:none;stroke:#6d6d6c;stroke-linecap:round;stroke-linejoin:round"/><rect x="48.64" y="34" width="10.71" height="1.07" style="fill:#6d6d6c;stroke:#6d6d6c;stroke-linecap:round;stroke-linejoin:round"/></svg>