<svg xmlns="http://www.w3.org/2000/svg" xmlns:xlink="http://www.w3.org/1999/xlink"  viewBox="0 0 155 200" version="1.1"><g transform="translate(0,0)"><path class="domain" d="M 5 5 L 125 5 L 150 35 L 150 195 L 5 195 L 5 5 L 125 5" style="fill: white; stroke: rgb(108, 108, 108); stroke-width: 10"/><path class="domain" d="M 125 5 L 125 35 L 150 35" style="fill: none; stroke: rgb(108, 108, 108); stroke-width: 10"/><path class="domain" d="M 20 55 L 130 55" style="fill: none; stroke: rgb(108, 108, 108); stroke-width: 12"/><path class="domain" d="M 23 55 L 23 170 L 127 170 L 127 55" style="fill: none; stroke: rgb(108, 108, 108); stroke-width: 6"/><path class="domain" d="M 20 75 L 130 75" style="fill: none; stroke: rgb(108, 108, 108); stroke-width: 3"/><path class="domain" d="M 20 95 L 130 95" style="fill: none; stroke: rgb(108, 108, 108); stroke-width: 3"/><path class="domain" d="M 20 115 L 130 115" style="fill: none; stroke: rgb(108, 108, 108); stroke-width: 3"/><path class="domain" d="M 20 135 L 130 135" style="fill: none; stroke: rgb(108, 108, 108); stroke-width: 3"/><path class="domain" d="M 20 155 L 130 155" style="fill: none; stroke: rgb(108, 108, 108); stroke-width: 3"/><path class="domain" d="M 45 55 L 45 170" style="fill: none; stroke: rgb(108, 108, 108); stroke-width: 3"/><path class="domain" d="M 65 55 L 65 170" style="fill: none; stroke: rgb(108, 108, 108); stroke-width: 3"/><path class="domain" d="M 85 55 L 85 170" style="fill: none; stroke: rgb(108, 108, 108); stroke-width: 3"/><path class="domain" d="M 105 55 L 105 170" style="fill: none; stroke: rgb(108, 108, 108); stroke-width: 3"/></g></svg>