<svg xmlns="http://www.w3.org/2000/svg" viewBox="0 0 90.57 102.63"><g id="Capa_1" data-name="Capa 1"><path d="M95,30V97a8,8,0,0,1-8,8H33a8,8,0,0,1-8-8V23a8,8,0,0,1,8-8H80" transform="translate(-23 -13)" style="fill:#fff;stroke:#6d6d6c;stroke-linecap:round;stroke-linejoin:round;stroke-width:4px"/><polygon points="57 17 57 2 72 17 57 17" style="fill:#fff;stroke:#6d6d6c;stroke-linecap:round;stroke-linejoin:round;stroke-width:4px"/><rect x="12" y="32" width="50" height="45" style="fill:#fff;stroke:#6d6d6c;stroke-linecap:round;stroke-linejoin:round;stroke-width:2px"/><line x1="62" y1="67" x2="12" y2="67" style="fill:none;stroke:#6d6d6c;stroke-linecap:round;stroke-linejoin:round;stroke-width:2px"/><line x1="62" y1="57" x2="12" y2="57" style="fill:none;stroke:#6d6d6c;stroke-linecap:round;stroke-linejoin:round;stroke-width:2px"/><line x1="62" y1="47" x2="12" y2="47" style="fill:none;stroke:#6d6d6c;stroke-linecap:round;stroke-linejoin:round;stroke-width:2px"/><line x1="62" y1="37" x2="12" y2="37" style="fill:none;stroke:#6d6d6c;stroke-linecap:round;stroke-linejoin:round;stroke-width:2px"/><line x1="27" y1="77" x2="27" y2="37" style="fill:none;stroke:#6d6d6c;stroke-linecap:round;stroke-linejoin:round;stroke-width:2px"/><line x1="47" y1="77" x2="47" y2="37" style="fill:none;stroke:#6d6d6c;stroke-linecap:round;stroke-linejoin:round;stroke-width:2px"/><rect x="12" y="32" width="50" height="5" style="fill:#6d6d6c;stroke:#6d6d6c;stroke-linecap:round;stroke-linejoin:round;stroke-width:2px"/></g><g id="Capa_2" data-name="Capa 2"><path d="M61.61,112.63h40s9-.44,9-8-9-7-9-7,3.52-3.71-1-8-9.11-2.11-9.11-2.11a17.84,17.84,0,0,0-19.28-5.68C59.68,85.48,61.61,96.22,61.61,96.22s-10.4,1.15-10,8.78S61.61,112.63,61.61,112.63Z" transform="translate(-23 -13)" style="fill:#fff;stroke:#1d71b8;stroke-linecap:round;stroke-linejoin:round;stroke-width:6px"/></g></svg>