<svg id="Layer_3" data-name="Layer 3" xmlns="http://www.w3.org/2000/svg" viewBox="0 0 104.52 55.1"><path d="M87.47,37.88c.58-8.84-4.4-19.68,14.73-17.09s14.76,43.08-.59,38.73S86.89,46.71,87.47,37.88Z" transform="translate(-10.38 -5)" style="fill:#7470b2;opacity:0.2"/><path d="M97,20.4H95a13.26,13.26,0,0,0-2,.3l.22,1A17.22,17.22,0,0,1,97,21.4v-1Zm-7.53,2.11a5.88,5.88,0,0,0-.64.69h0v0h0v0h-.06v0h-.12v0h0l0,0h0a7.22,7.22,0,0,0-1,2.39l1,.23a5.53,5.53,0,0,1,1.59-2.94l-.67-.74Zm-1.22,7.42h-1c0,1.27.11,2.58.17,3.9h0v.08l1,0-.06-1.17c-.05-1-.09-1.89-.11-2.79Zm-.82,8h0V38c0,.42,0,.83-.08,1.24h0v0h0v0h0v0h0v.12h0v0h0c0,.79-.08,1.59-.1,2.37l1,0c0-1.27.12-2.6.2-3.88V38l-1-.06Zm.93,7.87-1,.11s0,.1,0,.15h0v0h0v0h0v0h0v0h0v0h0a15.18,15.18,0,0,0,.86,3.34l.93-.36a14.31,14.31,0,0,1-.86-3.63Zm2.73,6.78-.77.64a14.67,14.67,0,0,0,3,2.66l.57-.83a13.62,13.62,0,0,1-2.77-2.47Zm6.11,4.31-.41.92a33.4,33.4,0,0,0,3.75,1.39l.29-1a32.18,32.18,0,0,1-3.63-1.36Zm10.38.71a6.38,6.38,0,0,1-3.21,1.21l.09,1a7.5,7.5,0,0,0,3.7-1.4h0l-.58-.81Zm4.27-6A17.46,17.46,0,0,1,110.13,55l.82.57.25-.37h0v0h.13v0h0a19,19,0,0,0,1.16-2.2h0v0h0v0h.1l.19-.45-.93-.38Zm1.82-7.48a30.74,30.74,0,0,1-.65,3.82l1,.23a31.14,31.14,0,0,0,.67-3.94l-1-.11Zm.9-7.87-1,.14a32.46,32.46,0,0,1,.28,3.86h1c0-.79-.05-1.57-.11-2.35h0v0h0v0h0v0h0v0h0v0h0v0h0v0h0v0h0v0h0v0h0v0h0v0h0v0h0v0h0v0h0v0h0v0h0v0h0v-.05h0c0-.11,0-.22,0-.33Zm-2.23-7.65-.9.44a21.51,21.51,0,0,1,1.36,3.57l1-.27c-.1-.35-.2-.69-.32-1h0v0h0v0h0v0h-.09v0h0v0h0v0h0v0h0v0h0v0h0v0h0v0h0v0h0l0-.07h0a22.12,22.12,0,0,0-.87-2.05Zm-5.12-6-.55.84a12.2,12.2,0,0,1,2.75,2.45l.77-.64h-2.08l0,0h0l0,0h0c-.27-.21-.55-.41-.83-.59Zm-7.62-2.12-.08,1c.79.06,1.63.15,2.51.27a11.3,11.3,0,0,1,1.29.25l.24-1a11.2,11.2,0,0,0-1.18-.24h-.61c-.74-.1-1.44-.17-2.11-.22h-.06Z" transform="translate(-10.38 -5)" style="fill:#7470b2"/><path d="M47.52,36.59C50,21,52.45,19.15,71.57,20.9c17.58.05,9.23,27.6,4.5,32.41s-6.51,9.13-16.66,5.34S45.06,52.23,47.52,36.59Z" transform="translate(-10.38 -5)" style="fill:#d86013;opacity:0.2"/><path d="M62.26,20.36h0a33.33,33.33,0,0,0-3.47.16h-.13l-.35,0,.13,1a30.8,30.8,0,0,1,3.86-.21v-1ZM54.42,21.6a8.08,8.08,0,0,0-3.09,2.48l.79.61a7.06,7.06,0,0,1,2.72-2.18l-.42-.91Zm-4.91,6v0h0l0,.09h0l0,0h0l0,.07h0v0h0v0h0v0h0v0h0v0h0v0h-.08v0h-.07v0h0v0h0v0h0v0h0v0h0v0h0v0h0v0h0v0h0v0h0v0h0v0h0v0h0v0h0v0h0l0,.07h0v0h0v0h0c-.12.46-.23.93-.34,1.43l1,.21a30.68,30.68,0,0,1,1-3.73l-.94-.33Zm-1.8,7.78v.08h0c0,.1,0,.2,0,.3h0v0h0l-.12.73c-.14.92-.26,1.79-.36,2.62h0v.08h0v0h0l1,.12c.1-.86.23-1.78.38-2.74.06-.4.13-.79.19-1.18l-1-.16Zm-.87,8c0,.18,0,.37,0,.55h0v0h0A25.45,25.45,0,0,0,47,46.88h0a2.7,2.7,0,0,1,0,.28l1-.15a22.55,22.55,0,0,1-.2-3.82l-1,0Zm2.26,7.35-.89.45a9.73,9.73,0,0,0,1.95,2.62h0l0,0h.5l.65-.76a8.88,8.88,0,0,1-2.24-2.79Zm5.4,4.81-.45.89c1.1.55,2.33,1.07,3.67,1.6l.36-.94c-1.47-.57-2.61-1.07-3.58-1.55Zm7.27,2.87-.28,1a17.27,17.27,0,0,0,3.92.73l0-1a15.7,15.7,0,0,1-3.69-.69Zm10-2a9.9,9.9,0,0,1-2.91,2.14l.41.91a11,11,0,0,0,3.18-2.31h0v0h0l-.71-.71Zm5-5.86a10.19,10.19,0,0,1-1.48,2.1l-.82.86.73.68.17-.18h0l.62-.64h.11l0,0h0v0h0l0,0h0v0h0l0,0h0l0,0h0c.11-.13.22-.26.33-.41h0v0h0l0,0h0l0,0h0v0h0l0,0h0v0H77v0h0l0,0h0c.21-.32.43-.67.65-1.06l-.87-.49Zm2.89-7.19c-.37,1.28-.79,2.52-1.26,3.7l.93.37c0-.12.09-.23.13-.34h0v0h0v0h.06v0h0c.27-.72.53-1.46.77-2.24h0v0h0v0h.06v0h0v0h0c.06-.19.11-.38.17-.58l-1-.28Zm1.44-7.65a36.58,36.58,0,0,1-.53,3.85l1,.19c.14-.73.26-1.48.36-2.22h0v0h0v0h0v0h0v0h0v0h0v0h0v0h0v0h0v0h0v0h0v0h0v0h0v0h0v0h0c0-.35.08-.7.1-1l-1-.08Zm.31-7.84-1,.3a16.6,16.6,0,0,1,.67,3.7l1-.08a18.66,18.66,0,0,0-.49-3.15h0v0h0v0h-.06v0h0v0h0v0h0v0h0c0-.11-.07-.23-.11-.34Zm-5-6-.41.91a7.44,7.44,0,0,1,2.76,2.14l.78-.63c-.17-.21-.35-.41-.54-.61h0l0,0h0l0,0h-.52l0,0h-.09l0,0h-.14l0,0h-.81l0,0h-.06l0,0h-.14l0,0h0l0,0h0c-.18-.1-.37-.19-.57-.28Zm-7.86-1.22-.07,1,2.9.24h.08c.35,0,.69,0,1,0l.07-1-.26,0h-.81L70,20.76h0l-.8-.07h0l-.47,0Zm-6.39-.29h0v1h0c.72,0,1.52,0,2.36.05l0-1c-.79,0-1.54-.05-2.26-.05h-.14Z" transform="translate(-10.38 -5)" style="fill:#d86013"/><path d="M10.53,41.72c.16-2.24.66-9.37,5-15.1,6.34-8.43,14.5-7.63,22-4.56C45,26.4,45,29,44.23,35.34,43,41.72,38,49.37,34,52.56s-8.44,7.49-14,6.2a12.16,12.16,0,0,1-8.28-6.84C10.07,48.31,10.32,44.68,10.53,41.72Z" transform="translate(-10.38 -5)" style="fill:#199e77;opacity:0.2"/><path d="M28,19.91h-.21a16,16,0,0,0-2,.15H24.07l.26,1A14.29,14.29,0,0,1,28,20.91v-1ZM20.41,22a16.32,16.32,0,0,0-2.84,2.23h-.11l-.15.15.71.7a15.85,15.85,0,0,1,2.92-2.35L20.41,22ZM14.8,27.62l-.14.21h0v0h-.13v0h0l0,0h0a20.94,20.94,0,0,0-1.13,2.07h0l0,0h0v0h-.05v0h0c-.12.26-.24.51-.35.77l.92.39a22,22,0,0,1,1.81-3.36l-.83-.55Zm-3.2,7.3-.09.36h0c-.28,1.14-.47,2.21-.61,3.15h0l0,.2,1,.13a31.93,31.93,0,0,1,.76-3.8l-1-.25Zm-1.14,7.9a26.63,26.63,0,0,0,0,4l1-.08a27.33,27.33,0,0,1,0-3.86l-1-.06Zm1.73,7.58-.95.32c.1.28.2.56.32.83h.1v0h0v0h.1l0,0h0v0h0v0h0a13.45,13.45,0,0,0,1.25,2l.8-.6a12,12,0,0,1-1.27-2.14c-.16-.36-.31-.74-.44-1.11Zm4.35,5.76L16,57a12.21,12.21,0,0,0,3.61,1.67l.26-1a11.47,11.47,0,0,1-3.32-1.54Zm10.28.47a10.94,10.94,0,0,1-3.42,1.26l.16,1a9.41,9.41,0,0,0,1.08-.24h0l.09,0h1.51l0,0h.08l0,0h0l0,0h0c.3-.14.59-.29.87-.44l-.48-.88ZM33.11,52l-1,.84c-.68.55-1.37,1.12-2.07,1.66l.61.79c.71-.55,1.4-1.12,2.09-1.68l.17-.14h0l.59-.48h0l.22-.17L33.11,52Zm5.12-5.72a32.39,32.39,0,0,1-2.37,3.08l.76.65c.33-.38.67-.78,1-1.21h0l0,0h.12v0h0v0h0v0h0c.28-.35.55-.71.81-1.09h.1v0h0l.31-.45-.83-.57Zm3.71-6.83A35.83,35.83,0,0,1,40.27,43l.88.48.43-.82h0v0h0v0h.16v0h0v0h0v0h0v0h0v0h0v0h0l0,0h0v0h0v0h0c.11-.22.21-.45.32-.68h0v0h0v0h0l0,0h0v0h0v0h0v0h0v0h0v0h0v0h.06v0h0v0h0v0h0l0,0h0v0h0c.11-.27.23-.54.33-.8l-.92-.38ZM43.54,32c0,.9-.14,1.89-.29,3.18,0,.2-.09.41-.13.61l1,.22c0-.06,0-.13,0-.2h0v0h0v0h0c0-.08,0-.15,0-.23h0c.14-1.22.26-2.3.3-3.27l-1,0Zm-1.87-7.07-.66.75a7.36,7.36,0,0,1,2.1,2.79l.93-.36a8.45,8.45,0,0,0-2.37-3.18Zm-6.92-3.87-.3,1c.83.27,1.71.59,2.61.95l.84.5.52-.85-.66-.4h0l-.18-.1H37.4c-.88-.36-1.76-.68-2.65-1ZM28,19.91h0v1h0a18,18,0,0,1,2.69.21l.15-1a19.62,19.62,0,0,0-2.41-.22H28Z" transform="translate(-10.38 -5)" style="fill:#199e77"/><circle cx="9.12" cy="23.5" r="2.5" style="fill:#199e77"/><circle cx="16.12" cy="32.5" r="2.5" style="fill:#199e77"/><circle cx="7.12" cy="42.5" r="2.5" style="fill:#199e77"/><circle cx="17.12" cy="20.5" r="2.5" style="fill:#199e77"/><circle cx="25.12" cy="32.5" r="2.5" style="fill:#199e77"/><circle cx="5.12" cy="33.5" r="2.5" style="fill:#199e77"/><circle cx="26.12" cy="22.5" r="2.5" style="fill:#199e77"/><circle cx="42.14" cy="42.51" r="2.5" style="fill:#d86013"/><circle cx="50.14" cy="47.51" r="2.5" style="fill:#d86013"/><circle cx="58.14" cy="28.51" r="2.5" style="fill:#d86013"/><circle cx="66.6" cy="26" r="2.5" style="fill:#d86013"/><circle cx="43.14" cy="31.51" r="2.5" style="fill:#d86013"/><circle cx="89.12" cy="21.5" r="2.5" style="fill:#7470b2"/><circle cx="64.33" cy="36.05" r="2.5" style="fill:#d86013"/><circle cx="60.26" cy="43.49" r="2.5" style="fill:#d86013"/><circle cx="94.12" cy="28.5" r="2.5" style="fill:#7470b2"/><circle cx="92.12" cy="48.5" r="2.5" style="fill:#7470b2"/><circle cx="85.12" cy="40.5" r="2.5" style="fill:#7470b2"/><circle cx="61.08" cy="21.37" r="2.5" style="fill:#d86013"/><circle cx="84.12" cy="29.5" r="2.5" style="fill:#7470b2"/><circle cx="96.12" cy="36.5" r="2.5" style="fill:#7470b2"/><circle cx="47.14" cy="21.51" r="2.5" style="fill:#d86013"/><path d="M191.5,24.5" transform="translate(-10.38 -5)" style="fill:#199e77;fill-opacity:0.46;stroke:#575756;stroke-miterlimit:10"/><path d="M125.5,31.5" transform="translate(-10.38 -5)" style="fill:#199e77;fill-opacity:0.46;stroke:#575756;stroke-miterlimit:10"/><rect x="15.12" y="0.5" width="9" height="9" rx="2" style="fill:#199e77;stroke:#575756;stroke-miterlimit:10"/><rect x="50.62" y="0.5" width="9" height="9" rx="2" style="fill:#d86013;stroke:#575756;stroke-miterlimit:10"/><rect x="86.12" y="0.5" width="9" height="9" rx="2" style="fill:#7470b2;stroke:#575756;stroke-miterlimit:10"/><path d="M120.15,32.55" transform="translate(-10.38 -5)" style="fill:#7470b2;stroke:#7470b2;stroke-miterlimit:10;stroke-dasharray:4"/><path d="M97,64.62" transform="translate(-10.38 -5)" style="fill:#7470b2;stroke:#7470b2;stroke-miterlimit:10;stroke-dasharray:4"/><circle cx="49.13" cy="35.51" r="2.5" style="fill:#d86013"/><circle cx="17.12" cy="46.5" r="2.5" style="fill:#199e77"/></svg>