<?xml version="1.0" encoding="UTF-8" standalone="no"?><svg   xmlns:dc="http://purl.org/dc/elements/1.1/"   xmlns:cc="http://creativecommons.org/ns#"   xmlns:rdf="http://www.w3.org/1999/02/22-rdf-syntax-ns#"   xmlns:svg="http://www.w3.org/2000/svg"   xmlns="http://www.w3.org/2000/svg"   xmlns:sodipodi="http://sodipodi.sourceforge.net/DTD/sodipodi-0.dtd"   xmlns:inkscape="http://www.inkscape.org/namespaces/inkscape"   viewBox="0 0 255 265"   version="1.1"   id="svg30"   sodipodi:docname="dependencieIcon.svg"   inkscape:version="0.92.1 r15371"   width="255"   height="265"><metadata id="metadata36"><rdf:RDF><cc:Work     rdf:about=""><dc:format>image/svg+xml</dc:format><dc:type   rdf:resource="http://purl.org/dc/dcmitype/StillImage" /><dc:title /></cc:Work></rdf:RDF></metadata><defs id="defs34" /><sodipodi:namedview pagecolor="#ffffff" bordercolor="#666666" borderopacity="1" objecttolerance="10" gridtolerance="10" guidetolerance="10" inkscape:pageopacity="0" inkscape:pageshadow="2" inkscape:window-width="1920" inkscape:window-height="1018" id="namedview32" showgrid="false" inkscape:zoom="1.4142136" inkscape:cx="-118.36584" inkscape:cy="97.334006" inkscape:window-x="-5" inkscape:window-y="-5" inkscape:window-maximized="1" inkscape:current-layer="svg30" showguides="false" /><path style="fill:none;fill-opacity:0.31155778;stroke:#81889f;stroke-width:5.01049852;stroke-miterlimit:4;stroke-dasharray:none;stroke-opacity:1" d="M 17.686401,99.404066 A 115.70367,115.70367 0 0 1 128.0433,18.466652 115.70367,115.70367 0 0 1 238.39067,99.373808" id="path6104-3" inkscape:connector-curvature="0" /><rect style="fill:#ffffff;fill-opacity:1;stroke:#81889f;stroke-width:2;stroke-miterlimit:4;stroke-dasharray:none;stroke-opacity:1" id="rect4614-6-33-2-6-0-7-6-3" width="59.016396" height="59.016392" x="40.378807" y="177.19518" /><rect style="fill:#ffffff;fill-opacity:1;stroke:#81889f;stroke-width:2;stroke-miterlimit:4;stroke-dasharray:none;stroke-opacity:1" id="rect4614-6-33-2-6-0-7-6-6" width="59.016396" height="59.016392" x="158.41159" y="177.19518" /><path style="fill:#f8f9fa;fill-opacity:1;stroke:none;stroke-width:4.90080786;stroke-miterlimit:4;stroke-dasharray:none;stroke-opacity:1" d="M -72.575576,107.5766 V 264.79046 H 353.14003 V 107.5766 H 236.7041 a 115.06005,105.74519 0 0 1 6.14106,33.67366 A 115.06005,105.74519 0 0 1 127.7856,246.99504 115.06005,105.74519 0 0 1 12.726035,141.25026 115.06005,105.74519 0 0 1 18.827377,107.5766 Z" id="rect5964" inkscape:connector-curvature="0" /><path style="fill:none;fill-opacity:0.31155778;stroke:#81889f;stroke-width:5.01049852;stroke-miterlimit:4;stroke-dasharray:none;stroke-opacity:1" d="m 238.39067,99.373808 a 115.70367,115.70367 0 0 1 5.3563,34.796512 v 0 0 A 115.70367,115.70367 0 0 1 128.0433,249.87399 115.70367,115.70367 0 0 1 12.339638,134.17032 115.70367,115.70367 0 0 1 17.686401,99.404066" id="path4540" inkscape:connector-curvature="0" /><rect style="fill:#ffffff;fill-opacity:1;stroke:#81889f;stroke-width:2;stroke-miterlimit:4;stroke-dasharray:none;stroke-opacity:1" id="rect4614-6-33-2-6" width="59.016396" height="59.016392" x="16.378807" y="35.162392" /><rect style="fill:#ffffff;fill-opacity:1;stroke:#81889f;stroke-width:2;stroke-miterlimit:4;stroke-dasharray:none;stroke-opacity:1" id="rect4614-6-33-2-6-0-7-6" width="59.016396" height="59.016392" x="99.395203" y="106.17878" /><rect style="fill:#ffffff;fill-opacity:1;stroke:#81889f;stroke-width:2;stroke-miterlimit:4;stroke-dasharray:none;stroke-opacity:1" id="rect4614-6-33-2-6-0-7-6-1" width="59.016396" height="59.016392" x="182.41159" y="35.162392" /><rect style="fill:#ffffff;fill-opacity:1;stroke:#81889f;stroke-width:2;stroke-miterlimit:4;stroke-dasharray:none;stroke-opacity:1" id="rect4614-6-33-2-6-0-7-6-5" width="59.016396" height="59.016392" x="170.41159" y="106.17879" /><rect style="fill:#ffffff;fill-opacity:1;stroke:#81889f;stroke-width:2;stroke-miterlimit:4;stroke-dasharray:none;stroke-opacity:1" id="rect4614-6-33-2-6-0-7-6-9" width="59.016396" height="59.016392" x="99.395203" y="177.19518" /><rect style="fill:#ffffff;fill-opacity:1;stroke:#81889f;stroke-width:2;stroke-miterlimit:4;stroke-dasharray:none;stroke-opacity:1" id="rect4614-6-33-2-6-2" width="59.016396" height="59.016392" x="99.395203" y="35.162392" /><rect style="fill:#ffffff;fill-opacity:1;stroke:#81889f;stroke-width:2;stroke-miterlimit:4;stroke-dasharray:none;stroke-opacity:1" id="rect4614-6-33-2-6-28" width="59.016396" height="59.016392" x="28.378807" y="106.17878" /></svg>