<svg xmlns="http://www.w3.org/2000/svg" viewBox="0 0 110 45"><g id="Layer_2" data-name="Layer 2"><line x1="3.82" y1="42.13" x2="20" y2="30" style="fill:none;stroke:#575756;stroke-linecap:round;stroke-linejoin:round;stroke-width:2px"/><polygon points="7.4 43.16 4.61 41.54 3.84 38.42 0 45 7.4 43.16" style="fill:#575756"/><line x1="20" y1="4.78" x2="20" y2="30" style="fill:none;stroke:#575756;stroke-linecap:round;stroke-linejoin:round;stroke-width:2px"/><polygon points="17.04 7.02 20 5.76 22.96 7.02 20 0 17.04 7.02" style="fill:#575756"/><line x1="45.22" y1="30" x2="20" y2="30" style="fill:none;stroke:#575756;stroke-linecap:round;stroke-linejoin:round;stroke-width:2px"/><polygon points="42.98 27.04 44.24 30 42.98 32.96 50 30 42.98 27.04" style="fill:#575756"/><circle cx="37.5" cy="37.5" r="2.5" style="fill:#199e77"/><circle cx="15.5" cy="13.5" r="2.5" style="fill:#199e77"/><circle cx="27.5" cy="22.5" r="2.5" style="fill:#199e77"/><circle cx="13.5" cy="29.5" r="2.5" style="fill:#d86013"/><circle cx="28.5" cy="11.5" r="2.5" style="fill:#d86013"/><circle cx="38.5" cy="23.5" r="2.5" style="fill:#d86013"/><circle cx="15.5" cy="41.5" r="2.5" style="fill:#7470b2"/><circle cx="25.5" cy="36.5" r="2.5" style="fill:#7470b2"/><circle cx="6.5" cy="24.5" r="2.5" style="fill:#7470b2"/><line x1="75" y1="9.78" x2="75" y2="40" style="fill:none;stroke:#575756;stroke-linecap:round;stroke-linejoin:round;stroke-width:2px"/><polygon points="72.04 12.02 75 10.76 77.96 12.02 75 5 72.04 12.02" style="fill:#575756"/><line x1="105.22" y1="40" x2="75" y2="40" style="fill:none;stroke:#575756;stroke-linecap:round;stroke-linejoin:round;stroke-width:2px"/><polygon points="102.98 37.04 104.24 40 102.98 42.96 110 40 102.98 37.04" style="fill:#575756"/><circle cx="104.5" cy="31.5" r="2.5" style="fill:#199e77"/><circle cx="82.5" cy="10.5" r="2.5" style="fill:#199e77"/><circle cx="85.5" cy="19.5" r="2.5" style="fill:#199e77"/><circle cx="94.5" cy="19.5" r="2.5" style="fill:#d86013"/><circle cx="91.5" cy="8.5" r="2.5" style="fill:#d86013"/><circle cx="103.5" cy="17.5" r="2.5" style="fill:#d86013"/><circle cx="84.5" cy="35.5" r="2.5" style="fill:#7470b2"/><circle cx="94.5" cy="31.5" r="2.5" style="fill:#7470b2"/><circle cx="80.5" cy="27.5" r="2.5" style="fill:#7470b2"/><line x1="59.23" y1="22.5" x2="53.25" y2="22.5" style="fill:none;stroke:#575756;stroke-linecap:round;stroke-linejoin:round;stroke-width:2px"/><polygon points="58.21 19.01 64.25 22.5 58.21 25.99 58.21 19.01" style="fill:#575756"/></g></svg>