<?xml version="1.0" encoding="UTF-8"?>
<!DOCTYPE svg PUBLIC "-//W3C//DTD SVG 1.1//EN" "http://www.w3.org/Graphics/SVG/1.1/DTD/svg11.dtd">
<svg xmlns="http://www.w3.org/2000/svg" xmlns:xlink="http://www.w3.org/1999/xlink" version="1.1" width="417px" height="237px" viewBox="-0.5 -0.5 417 237"><defs/><g><path d="M 197.16 151 L 204.64 135.53 L 230.23 147.9 L 235.12 137.78 L 249.1 166.56 L 217.86 173.49 L 222.75 163.37 Z" fill="#6c6c6c" stroke="none" pointer-events="all"/><path d="M 80 119 L 80 27.71" fill="none" stroke="#6c6c6c" stroke-width="6" stroke-miterlimit="10" pointer-events="stroke"/><path d="M 80 15.71 L 84 27.71 L 76 27.71 Z" fill="#6c6c6c" stroke="#6c6c6c" stroke-width="6" stroke-miterlimit="10" pointer-events="all"/><path d="M 79 119 L 171.29 119" fill="none" stroke="#6c6c6c" stroke-width="6" stroke-miterlimit="10" pointer-events="stroke"/><path d="M 183.29 119 L 171.29 123 L 171.29 115 Z" fill="#6c6c6c" stroke="#6c6c6c" stroke-width="6" stroke-miterlimit="10" pointer-events="all"/><path d="M 80 119 L 24.2 166.82" fill="none" stroke="#6c6c6c" stroke-width="6" stroke-miterlimit="10" pointer-events="stroke"/><path d="M 15.09 174.63 L 21.6 163.79 L 26.81 169.86 Z" fill="#6c6c6c" stroke="#6c6c6c" stroke-width="6" stroke-miterlimit="10" pointer-events="all"/><ellipse cx="33" cy="69" rx="10" ry="10" fill="#1b9e77" stroke="none" pointer-events="all"/><ellipse cx="53" cy="97" rx="10" ry="10" fill="#d95f02" stroke="none" pointer-events="all"/><ellipse cx="33" cy="129" rx="10" ry="10" fill="#7570b3" stroke="none" pointer-events="all"/><ellipse cx="120" cy="137" rx="10" ry="10" fill="#7570b3" stroke="none" pointer-events="all"/><ellipse cx="63" cy="49" rx="10" ry="10" fill="#d95f02" stroke="none" pointer-events="all"/><ellipse cx="103" cy="109" rx="10" ry="10" fill="#1b9e77" stroke="none" pointer-events="all"/><ellipse cx="110" cy="59" rx="10" ry="10" fill="#1b9e77" stroke="none" pointer-events="all"/><ellipse cx="83" cy="147" rx="10" ry="10" fill="#d95f02" stroke="none" pointer-events="all"/><ellipse cx="140" cy="89" rx="10" ry="10" fill="#7570b3" stroke="none" pointer-events="all"/><path d="M 271 225 L 271 117.71" fill="none" stroke="#6c6c6c" stroke-width="6" stroke-miterlimit="10" pointer-events="stroke"/><path d="M 271 105.71 L 275 117.71 L 267 117.71 Z" fill="#6c6c6c" stroke="#6c6c6c" stroke-width="6" stroke-miterlimit="10" pointer-events="all"/><path d="M 270 223.95 L 387.29 223.99" fill="none" stroke="#6c6c6c" stroke-width="6" stroke-miterlimit="10" pointer-events="stroke"/><path d="M 399.29 224 L 387.29 227.99 L 387.29 219.99 Z" fill="#6c6c6c" stroke="#6c6c6c" stroke-width="6" stroke-miterlimit="10" pointer-events="all"/><ellipse cx="305" cy="127" rx="10" ry="10" fill="#1b9e77" stroke="none" pointer-events="all"/><ellipse cx="285" cy="165" rx="10" ry="10" fill="#1b9e77" stroke="none" pointer-events="all"/><ellipse cx="311" cy="155" rx="10" ry="10" fill="#1b9e77" stroke="none" pointer-events="all"/><ellipse cx="351" cy="135" rx="10" ry="10" fill="#d95f02" stroke="none" pointer-events="all"/><ellipse cx="331" cy="175" rx="10" ry="10" fill="#d95f02" stroke="none" pointer-events="all"/><ellipse cx="291" cy="197" rx="10" ry="10" fill="#d95f02" stroke="none" pointer-events="all"/><ellipse cx="316" cy="209" rx="10" ry="10" fill="#7570b3" stroke="none" pointer-events="all"/><ellipse cx="346" cy="204" rx="10" ry="10" fill="#7570b3" stroke="none" pointer-events="all"/><ellipse cx="371" cy="177" rx="10" ry="10" fill="#7570b3" stroke="none" pointer-events="all"/></g></svg>