<svg xmlns="http://www.w3.org/2000/svg" viewBox="0 0 69.82 30"><g id="Capa_1" data-name="Capa 1"><path d="M40.8,53.48V67.84a1.72,1.72,0,0,1-1.72,1.72H27.51a1.72,1.72,0,0,1-1.71-1.72V52a1.72,1.72,0,0,1,1.71-1.71H37.58" transform="translate(-25.3 -45)" style="fill:#fff;stroke:#b2b2b2;stroke-linecap:round;stroke-linejoin:round"/><polygon points="12.29 8.48 12.29 5.27 15.5 8.48 12.29 8.48" style="fill:#fff;stroke:#b2b2b2;stroke-linecap:round;stroke-linejoin:round"/><line x1="13.36" y1="19.2" x2="2.64" y2="19.2" style="fill:none;stroke:#b2b2b2;stroke-linecap:round;stroke-linejoin:round"/><line x1="13.36" y1="17.06" x2="2.64" y2="17.06" style="fill:none;stroke:#b2b2b2;stroke-linecap:round;stroke-linejoin:round"/><line x1="13.36" y1="14.91" x2="2.64" y2="14.91" style="fill:none;stroke:#b2b2b2;stroke-linecap:round;stroke-linejoin:round"/><line x1="13.36" y1="12.77" x2="2.64" y2="12.77" style="fill:none;stroke:#b2b2b2;stroke-linecap:round;stroke-linejoin:round"/><path d="M31.16,57.77" transform="translate(-25.3 -45)" style="fill:none;stroke:#b2b2b2;stroke-linecap:round;stroke-linejoin:round"/><path d="M31.16,66.34" transform="translate(-25.3 -45)" style="fill:none;stroke:#b2b2b2;stroke-linecap:round;stroke-linejoin:round"/><path d="M35.44,57.77" transform="translate(-25.3 -45)" style="fill:none;stroke:#b2b2b2;stroke-linecap:round;stroke-linejoin:round"/><path d="M35.44,66.34" transform="translate(-25.3 -45)" style="fill:none;stroke:#b2b2b2;stroke-linecap:round;stroke-linejoin:round"/><path d="M67.83,53.44V67.79a1.72,1.72,0,0,1-1.71,1.72H54.54a1.72,1.72,0,0,1-1.71-1.72V51.94a1.72,1.72,0,0,1,1.71-1.72H64.62" transform="translate(-25.3 -45)" style="fill:#fff;stroke:#6d6d6c;stroke-linecap:round;stroke-linejoin:round"/><polygon points="39.32 8.44 39.32 5.22 42.53 8.44 39.32 8.44" style="fill:#fff;stroke:#6d6d6c;stroke-linecap:round;stroke-linejoin:round"/><line x1="40.39" y1="19.15" x2="29.67" y2="19.15" style="fill:none;stroke:#6d6d6c;stroke-linecap:round;stroke-linejoin:round"/><line x1="40.39" y1="17.01" x2="29.67" y2="17.01" style="fill:none;stroke:#6d6d6c;stroke-linecap:round;stroke-linejoin:round"/><line x1="40.39" y1="14.87" x2="29.67" y2="14.87" style="fill:none;stroke:#6d6d6c;stroke-linecap:round;stroke-linejoin:round"/><line x1="40.39" y1="12.72" x2="29.67" y2="12.72" style="fill:none;stroke:#6d6d6c;stroke-linecap:round;stroke-linejoin:round"/><path d="M58.19,57.72" transform="translate(-25.3 -45)" style="fill:none;stroke:#6d6d6c;stroke-linecap:round;stroke-linejoin:round"/><path d="M58.19,66.29" transform="translate(-25.3 -45)" style="fill:none;stroke:#6d6d6c;stroke-linecap:round;stroke-linejoin:round"/><path d="M62.47,57.72" transform="translate(-25.3 -45)" style="fill:none;stroke:#6d6d6c;stroke-linecap:round;stroke-linejoin:round"/><path d="M62.47,66.29" transform="translate(-25.3 -45)" style="fill:none;stroke:#6d6d6c;stroke-linecap:round;stroke-linejoin:round"/><path d="M94.62,53.37V67.73a1.71,1.71,0,0,1-1.72,1.71H81.33a1.7,1.7,0,0,1-1.71-1.71V51.87a1.71,1.71,0,0,1,1.71-1.71H91.4" transform="translate(-25.3 -45)" style="fill:#fff;stroke:#b2b2b2;stroke-linecap:round;stroke-linejoin:round"/><polygon points="66.11 8.37 66.11 5.16 69.32 8.37 66.11 8.37" style="fill:#fff;stroke:#b2b2b2;stroke-linecap:round;stroke-linejoin:round"/><line x1="67.18" y1="19.09" x2="56.46" y2="19.09" style="fill:none;stroke:#b2b2b2;stroke-linecap:round;stroke-linejoin:round"/><line x1="67.18" y1="16.94" x2="56.46" y2="16.94" style="fill:none;stroke:#b2b2b2;stroke-linecap:round;stroke-linejoin:round"/><line x1="67.18" y1="14.8" x2="56.46" y2="14.8" style="fill:none;stroke:#b2b2b2;stroke-linecap:round;stroke-linejoin:round"/><line x1="67.18" y1="12.66" x2="56.46" y2="12.66" style="fill:none;stroke:#b2b2b2;stroke-linecap:round;stroke-linejoin:round"/><path d="M85,57.66" transform="translate(-25.3 -45)" style="fill:none;stroke:#b2b2b2;stroke-linecap:round;stroke-linejoin:round"/><path d="M85,66.23" transform="translate(-25.3 -45)" style="fill:none;stroke:#b2b2b2;stroke-linecap:round;stroke-linejoin:round"/><path d="M89.26,57.66" transform="translate(-25.3 -45)" style="fill:none;stroke:#b2b2b2;stroke-linecap:round;stroke-linejoin:round"/><path d="M89.26,66.23" transform="translate(-25.3 -45)" style="fill:none;stroke:#b2b2b2;stroke-linecap:round;stroke-linejoin:round"/></g><g id="Layer_3" data-name="Layer 3"><polyline points="48.7 25.5 48.7 29 45.2 29" style="fill:none;stroke:#6d6d6c;stroke-linecap:round;stroke-linejoin:round;stroke-width:2px"/><line x1="38.2" y1="29" x2="27.7" y2="29" style="fill:none;stroke:#6d6d6c;stroke-linecap:round;stroke-linejoin:round;stroke-width:2px;stroke-dasharray:7,7"/><polyline points="24.2 29 20.7 29 20.7 25.5" style="fill:none;stroke:#6d6d6c;stroke-linecap:round;stroke-linejoin:round;stroke-width:2px"/><line x1="20.7" y1="18.5" x2="20.7" y2="8" style="fill:none;stroke:#6d6d6c;stroke-linecap:round;stroke-linejoin:round;stroke-width:2px;stroke-dasharray:7,7"/><polyline points="20.7 4.5 20.7 1 24.2 1" style="fill:none;stroke:#6d6d6c;stroke-linecap:round;stroke-linejoin:round;stroke-width:2px"/><line x1="31.2" y1="1" x2="41.7" y2="1" style="fill:none;stroke:#6d6d6c;stroke-linecap:round;stroke-linejoin:round;stroke-width:2px;stroke-dasharray:7,7"/><polyline points="45.2 1 48.7 1 48.7 4.5" style="fill:none;stroke:#6d6d6c;stroke-linecap:round;stroke-linejoin:round;stroke-width:2px"/><line x1="48.7" y1="11.5" x2="48.7" y2="22" style="fill:none;stroke:#6d6d6c;stroke-linecap:round;stroke-linejoin:round;stroke-width:2px;stroke-dasharray:7,7"/></g></svg>