<svg xmlns="http://www.w3.org/2000/svg" xmlns:xlink="http://www.w3.org/1999/xlink" viewBox="0 0 212 202" version="1.1"><g transform="translate(0,0)"><path class="domain" d="M 0 5 L 130 5" style="fill: none; stroke: rgb(108, 108, 108); stroke-width: 12"/><path class="domain" d="M 3 5 L 3 170 L 127 170 L 127 5" style="fill: none; stroke: rgb(108, 108, 108); stroke-width: 6"/><path class="domain" d="M 0 25 L 130 25" style="fill: none; stroke: rgb(108, 108, 108); stroke-width: 3"/><path class="domain" d="M 0 45 L 130 45" style="fill: none; stroke: rgb(108, 108, 108); stroke-width: 3"/><path class="domain" d="M 0 65 L 130 65" style="fill: none; stroke: rgb(108, 108, 108); stroke-width: 3"/><path class="domain" d="M 0 85 L 130 85" style="fill: none; stroke: rgb(108, 108, 108); stroke-width: 3"/><path class="domain" d="M 0 105 L 130 105" style="fill: none; stroke: rgb(108, 108, 108); stroke-width: 3"/><path class="domain" d="M 0 125 L 130 125" style="fill: none; stroke: rgb(108, 108, 108); stroke-width: 3"/><path class="domain" d="M 0 145 L 130 145" style="fill: none; stroke: rgb(108, 108, 108); stroke-width: 3"/><path class="domain" d="M 25 5 L 25 170" style="fill: none; stroke: rgb(108, 108, 108); stroke-width: 3"/><path class="domain" d="M 45 5 L 45 170" style="fill: none; stroke: rgb(108, 108, 108); stroke-width: 3"/><path class="domain" d="M 65 5 L 65 170" style="fill: none; stroke: rgb(108, 108, 108); stroke-width: 3"/><path class="domain" d="M 85 5 L 85 170" style="fill: none; stroke: rgb(108, 108, 108); stroke-width: 3"/><path class="domain" d="M 105 5 L 105 170" style="fill: none; stroke: rgb(108, 108, 108); stroke-width: 3"/></g><g transform="translate(90,80)" style="fill: white; stroke: rgb(68, 68, 68); stroke-width: 4"><circle cx="60" cy="60" r="60" fill="#FF6F69"/><path d="M 4 10 L 80 10 L 50 50 L 50 70 L 30 85 L 30 50 L 0 10 L 80 10" stroke-linejoin="round" transform="translate(20,20)"/><ellipse cx="60" cy="30" rx="40" ry="10"/></g></svg>