<svg xmlns="http://www.w3.org/2000/svg" viewBox="0 0 79 30"><g id="Capa_1" data-name="Capa 1"><polygon points="30.69 8 36.48 8 39.37 9.82 47.22 9.82 47.22 22 30.69 22 30.69 8" style="fill:none;stroke:#6d6d6c;stroke-linecap:round;stroke-linejoin:round"/><polygon points="33.17 12.74 49.69 12.74 47.22 22 30.69 22 33.17 12.74" style="fill:#6d6d6c;stroke:#6d6d6c;stroke-linecap:round;stroke-linejoin:round"/><polygon points="0.5 8 6.28 8 9.17 9.82 17.02 9.82 17.02 22 0.5 22 0.5 8" style="fill:none;stroke:#b2b2b2;stroke-linecap:round;stroke-linejoin:round"/><polygon points="2.98 12.74 19.5 12.74 17.02 22 0.5 22 2.98 12.74" style="fill:#b2b2b2;stroke:#b2b2b2;stroke-linecap:round;stroke-linejoin:round"/><polygon points="59.5 8 65.28 8 68.17 9.82 76.02 9.82 76.02 22 59.5 22 59.5 8" style="fill:none;stroke:#b2b2b2;stroke-linecap:round;stroke-linejoin:round"/><polygon points="61.98 12.74 78.5 12.74 76.02 22 59.5 22 61.98 12.74" style="fill:#b2b2b2;stroke:#b2b2b2;stroke-linecap:round;stroke-linejoin:round"/></g><g id="Layer_3" data-name="Layer 3"><polyline points="53.19 25.5 53.19 29 49.69 29" style="fill:none;stroke:#6d6d6c;stroke-linecap:round;stroke-linejoin:round;stroke-width:2px"/><line x1="42.69" y1="29" x2="32.19" y2="29" style="fill:none;stroke:#6d6d6c;stroke-linecap:round;stroke-linejoin:round;stroke-width:2px;stroke-dasharray:7,7"/><polyline points="28.69 29 25.19 29 25.19 25.5" style="fill:none;stroke:#6d6d6c;stroke-linecap:round;stroke-linejoin:round;stroke-width:2px"/><line x1="25.19" y1="18.5" x2="25.19" y2="8" style="fill:none;stroke:#6d6d6c;stroke-linecap:round;stroke-linejoin:round;stroke-width:2px;stroke-dasharray:7,7"/><polyline points="25.19 4.5 25.19 1 28.69 1" style="fill:none;stroke:#6d6d6c;stroke-linecap:round;stroke-linejoin:round;stroke-width:2px"/><line x1="35.69" y1="1" x2="46.19" y2="1" style="fill:none;stroke:#6d6d6c;stroke-linecap:round;stroke-linejoin:round;stroke-width:2px;stroke-dasharray:7,7"/><polyline points="49.69 1 53.19 1 53.19 4.5" style="fill:none;stroke:#6d6d6c;stroke-linecap:round;stroke-linejoin:round;stroke-width:2px"/><line x1="53.19" y1="11.5" x2="53.19" y2="22" style="fill:none;stroke:#6d6d6c;stroke-linecap:round;stroke-linejoin:round;stroke-width:2px;stroke-dasharray:7,7"/></g></svg>