<svg xmlns="http://www.w3.org/2000/svg" xmlns:xlink="http://www.w3.org/1999/xlink" viewBox="0 0 200 150" version="1.1">	<g transform="translate(0,0)">		<rect x="0" y="0" width="50" height="50" fill="#f0f9e8" />		<rect x="50" y="50" width="50" height="50" fill="#ccebc5"/>		<rect x="50" y="0" width="50"  height="50" fill="#a8ddb5" />		<rect x="100" y="0" width="50"  height="50" fill="#7bccc4" />		<rect x="0" y="50" width="50"  height="50" fill="#43a2ca" />		<rect x="100" y="50" width="50"  height="50" fill="#0868ac" />		<rect x="150" y="00" width="50"  height="50" fill="#f0f9e8" />		<rect x="150" y="50" width="50"  height="50" fill="#43a2ca" />		<rect x="0" y="100" width="50"  height="50" fill="#f0f9e8" />		<rect x="50" y="100" width="50"  height="50" fill="#0868ac" />		<rect x="100" y="100" width="50"  height="50" fill="#7bccc4" />		<rect x="150" y="100" width="50"  height="50" fill="#a8ddb5" />		<path  d="M 1 1 L 1 149 L 199 149 L 199 1 L 1 1 "  stroke-linecap="round" fill="none" stroke-linejoin="round" stroke="#555" stroke-width="2" />	</g>		</svg>