<svg xmlns="http://www.w3.org/2000/svg" viewBox="0 0 87 70"><g id="Layer_4" data-name="Layer 4"><line x1="19" y1="20" x2="32" y2="48" style="fill:none;stroke:#575756;stroke-linecap:round;stroke-linejoin:round;stroke-width:2px"/><line x1="5" y1="26" x2="19" y2="20" style="fill:none;stroke:#575756;stroke-linecap:round;stroke-linejoin:round;stroke-width:2px"/><line x1="19" y1="20" x2="5" y2="13" style="fill:none;stroke:#575756;stroke-linecap:round;stroke-linejoin:round;stroke-width:2px"/><line x1="19" y1="20" x2="18" y2="5" style="fill:none;stroke:#575756;stroke-linecap:round;stroke-linejoin:round;stroke-width:2px"/><line x1="19" y1="20" x2="32" y2="11" style="fill:none;stroke:#575756;stroke-linecap:round;stroke-linejoin:round;stroke-width:2px"/><line x1="16" y1="56" x2="32" y2="48" style="fill:none;stroke:#575756;stroke-linecap:round;stroke-linejoin:round;stroke-width:2px"/><line x1="28" y1="65" x2="32" y2="48" style="fill:none;stroke:#575756;stroke-linecap:round;stroke-linejoin:round;stroke-width:2px"/><line x1="45" y1="59" x2="32" y2="48" style="fill:none;stroke:#575756;stroke-linecap:round;stroke-linejoin:round;stroke-width:2px"/><line x1="32" y1="48" x2="64" y2="32" style="fill:none;stroke:#575756;stroke-linecap:round;stroke-linejoin:round;stroke-width:2px"/><line x1="73" y1="46" x2="64" y2="32" style="fill:none;stroke:#575756;stroke-linecap:round;stroke-linejoin:round;stroke-width:2px"/><line x1="82" y1="32" x2="64" y2="32" style="fill:none;stroke:#575756;stroke-linecap:round;stroke-linejoin:round;stroke-width:2px"/><line x1="74" y1="21" x2="64" y2="32" style="fill:none;stroke:#575756;stroke-linecap:round;stroke-linejoin:round;stroke-width:2px"/><line x1="59" y1="19" x2="64" y2="32" style="fill:none;stroke:#575756;stroke-linecap:round;stroke-linejoin:round;stroke-width:2px"/></g><g id="Layer_3" data-name="Layer 3"><path d="M191.5,24.5" transform="translate(-10 -14)" style="fill:#199e77;fill-opacity:0.46;stroke:#575756;stroke-miterlimit:10"/><path d="M122.5,31.5" transform="translate(-10 -14)" style="fill:#199e77;fill-opacity:0.46;stroke:#575756;stroke-miterlimit:10"/><circle cx="5" cy="13" r="4.5" style="fill:#199e77;stroke:#575756;stroke-linecap:round;stroke-linejoin:round"/><circle cx="5" cy="26" r="4.5" style="fill:#199e77;stroke:#575756;stroke-linecap:round;stroke-linejoin:round"/><circle cx="18" cy="5" r="4.5" style="fill:#199e77;stroke:#575756;stroke-linecap:round;stroke-linejoin:round"/><circle cx="32" cy="11" r="4.5" style="fill:#199e77;stroke:#575756;stroke-linecap:round;stroke-linejoin:round"/><circle cx="19" cy="20" r="4.5" style="fill:#199e77;stroke:#575756;stroke-linecap:round;stroke-linejoin:round"/><circle cx="32" cy="48" r="4.5" style="fill:#d86013;stroke:#575756;stroke-linecap:round;stroke-linejoin:round"/><circle cx="28" cy="65" r="4.5" style="fill:#d86013;stroke:#575756;stroke-linecap:round;stroke-linejoin:round"/><circle cx="45" cy="59" r="4.5" style="fill:#d86013;stroke:#575756;stroke-linecap:round;stroke-linejoin:round"/><circle cx="59" cy="19" r="4.5" style="fill:#7470b2;stroke:#575756;stroke-linecap:round;stroke-linejoin:round"/><circle cx="76" cy="20" r="4.5" style="fill:#7470b2;stroke:#575756;stroke-linecap:round;stroke-linejoin:round"/><circle cx="82" cy="32" r="4.5" style="fill:#7470b2;stroke:#575756;stroke-linecap:round;stroke-linejoin:round"/><circle cx="73" cy="46" r="4.5" style="fill:#7470b2;stroke:#575756;stroke-linecap:round;stroke-linejoin:round"/><circle cx="16" cy="56" r="4.5" style="fill:#d86013;stroke:#575756;stroke-linecap:round;stroke-linejoin:round"/><circle cx="64" cy="32" r="4.5" style="fill:#7470b2;stroke:#575756;stroke-linecap:round;stroke-linejoin:round"/></g></svg>