<svg xmlns="http://www.w3.org/2000/svg" xmlns:xlink="http://www.w3.org/1999/xlink" viewBox="0 0 525 240"  version="1.1"><g transform="translate(5,-40)"><g ><path  d="M173.12985527143755,45L159.7965219381042,161.5h261.430867799325L434.5607230707625,45Z" style="fill: rgb(0, 179, 0); stroke: rgb(0, 179, 0); fill-opacity: 0.5; stroke-opacity: 0;"/><path  d="M170.30158457754132,161.5L159.46227332532462,278h220.2646873748641L390.56627195240543,161.5Z" style="fill: rgb(0, 179, 0); stroke: rgb(0, 179, 0); fill-opacity: 0.5; stroke-opacity: 0;"/><path  d="M0,45L0,161.5h118.54493450031461L118.54493450031461,45Z" style="fill: rgb(31, 119, 180); stroke: rgb(31, 119, 180); fill-opacity: 0.5; stroke-opacity: 0;"/><path  d="M6.832561066300554,161.5L36.73239517190092,278h91.38550426176991L98.21806532807047,161.5Z" style="fill: rgb(31, 119, 180); stroke: rgb(31, 119, 180); fill-opacity: 0.5; stroke-opacity: 0;"/><path  d="M441.22738973742923,45L421.2273897374292,161.5h76.43927692923745L517.6666666666667,45Z" style="fill: rgb(204, 0, 102); stroke: rgb(204, 0, 102); fill-opacity: 0.5; stroke-opacity: 0;"/><path  d="M426.6080315771409,161.5L379.7269607001887,278h67.04450546307419L493.65253704021507,161.5Z" style="fill: rgb(204, 0, 102); stroke: rgb(204, 0, 102); fill-opacity: 0.5; stroke-opacity: 0;"/><path  d="M125.21160116698128,45L118.54493450031461,161.5h41.251587437789595L166.4631886047709,45Z" style="fill: rgb(255, 127, 14); stroke: rgb(255, 127, 14); fill-opacity: 0.5; stroke-opacity: 0;"/><path  d="M122.55906412676619,161.5L128.11789943367083,278h31.34437389165379L153.90343801842,161.5Z" style="fill: rgb(255, 127, 14); stroke: rgb(255, 127, 14); fill-opacity: 0.5; stroke-opacity: 0;"/><path  d="M390.56627195240543,161.5L482.9914192551913,278h30.661117785023738L421.2273897374292,161.5Z" style="fill: rgb(0, 179, 0); stroke: rgb(0, 179, 0); fill-opacity: 0.5; stroke-opacity: 0;"/><path  d="M98.21806532807047,161.5L456.7714661632629,278h20.326869172244148L118.54493450031461,161.5Z" style="fill: rgb(31, 119, 180); stroke: rgb(31, 119, 180); fill-opacity: 0.5; stroke-opacity: 0;"/><path  d="M159.7965219381042,161.5L10.84669069275213,278h10.505062639437103L170.30158457754132,161.5Z" style="fill: rgb(0, 179, 0); stroke: rgb(0, 179, 0); fill-opacity: 0.5; stroke-opacity: 0;"/><path  d="M0,161.5L0,278h6.832561066300554L6.832561066300554,161.5Z" style="fill: rgb(31, 119, 180); stroke: rgb(31, 119, 180); fill-opacity: 0.5; stroke-opacity: 0;"/><path  d="M153.90343801842,161.5L477.09833533550704,278h5.893083919684228L159.7965219381042,161.5Z" style="fill: rgb(255, 127, 14); stroke: rgb(255, 127, 14); fill-opacity: 0.5; stroke-opacity: 0;"/><path  d="M421.2273897374292,161.5L21.351753332189233,278h5.380641839711687L426.6080315771409,161.5Z" style="fill: rgb(204, 0, 102); stroke: rgb(204, 0, 102); fill-opacity: 0.5; stroke-opacity: 0;"/><path  d="M118.54493450031461,161.5L6.832561066300554,278h4.014129626451576L122.55906412676619,161.5Z" style="fill: rgb(255, 127, 14); stroke: rgb(255, 127, 14); fill-opacity: 0.5; stroke-opacity: 0;"/><path  d="M493.65253704021507,161.5L513.6525370402151,278h4.014129626451576L497.66666666666663,161.5Z" style="fill: rgb(204, 0, 102); stroke: rgb(204, 0, 102); fill-opacity: 0.5; stroke-opacity: 0;"/></g><g ><path d="M173.12985527143755,45L159.7965219381042,161.5h261.430867799325L434.5607230707625,45Z" style="fill-opacity: 0;"/><path d="M170.30158457754132,161.5L159.46227332532462,278h220.2646873748641L390.56627195240543,161.5Z" style="fill-opacity: 0;"/><path d="M0,45L0,161.5h118.54493450031461L118.54493450031461,45Z" style="fill-opacity: 0;"/><path d="M6.832561066300554,161.5L36.73239517190092,278h91.38550426176991L98.21806532807047,161.5Z" style="fill-opacity: 0;"/><path d="M441.22738973742923,45L421.2273897374292,161.5h76.43927692923745L517.6666666666667,45Z" style="fill-opacity: 0;"/><path d="M426.6080315771409,161.5L379.7269607001887,278h67.04450546307419L493.65253704021507,161.5Z" style="fill-opacity: 0;"/><path d="M125.21160116698128,45L118.54493450031461,161.5h41.251587437789595L166.4631886047709,45Z" style="fill-opacity: 0;"/><path d="M122.55906412676619,161.5L128.11789943367083,278h31.34437389165379L153.90343801842,161.5Z" style="fill-opacity: 0;"/><path d="M390.56627195240543,161.5L482.9914192551913,278h30.661117785023738L421.2273897374292,161.5Z" style="fill-opacity: 0;"/><path d="M98.21806532807047,161.5L456.7714661632629,278h20.326869172244148L118.54493450031461,161.5Z" style="fill-opacity: 0;"/><path d="M159.7965219381042,161.5L10.84669069275213,278h10.505062639437103L170.30158457754132,161.5Z" style="fill-opacity: 0;"/><path d="M0,161.5L0,278h6.832561066300554L6.832561066300554,161.5Z" style="fill-opacity: 0;"/><path d="M153.90343801842,161.5L477.09833533550704,278h5.893083919684228L159.7965219381042,161.5Z" style="fill-opacity: 0;"/><path d="M421.2273897374292,161.5L21.351753332189233,278h5.380641839711687L426.6080315771409,161.5Z" style="fill-opacity: 0;"/><path d="M118.54493450031461,161.5L6.832561066300554,278h4.014129626451576L122.55906412676619,161.5Z" style="fill-opacity: 0;"/><path d="M493.65253704021507,161.5L513.6525370402151,278h4.014129626451576L497.66666666666663,161.5Z" style="fill-opacity: 0;"/></g><g  transform="translate(0,45)"><rect width="517.6666666666666" y="-45" height="45" style="display: none;"/><g  transform="translate(0)"><rect width="118.54493450031461" y="-20" height="20"  style="stroke: none; fill: none;"/><line x2="118.54493450031461" style="stroke-width: 2; stroke: rgb(0, 0, 0);"/></g><g  transform="translate(125.21160116698128)"><rect width="41.251587437789595" y="-20" height="20"  style="stroke: none; fill: none;"/><line x2="41.251587437789595" style="stroke-width: 2; stroke: rgb(0, 0, 0);"/></g><g  transform="translate(173.12985527143755)"><rect width="261.430867799325" y="-20" height="20"  style="stroke: none; fill: none;"/><line x2="261.430867799325" style="stroke-width: 2; stroke: rgb(0, 0, 0);"/></g><g  transform="translate(441.22738973742923)"><rect width="76.43927692923745" y="-20" height="20"  style="stroke: none; fill: none;"/><line x2="76.43927692923745" style="stroke-width: 2; stroke: rgb(0, 0, 0);"/></g></g><g  transform="translate(0,161.5)"><rect width="517.6666666666666" y="-45" height="45" style="display: none;"/><g  transform="translate(0)"><rect width="497.66666666666663" y="-20" height="20"  style="stroke: none; fill: none;"/><line x2="497.66666666666663" style="stroke-width: 2; stroke: rgb(0, 0, 0);"/></g></g><g  transform="translate(0,278)"><rect width="517.6666666666666" y="-45" height="45" style="display: none;"/><g  transform="translate(0)"><rect width="26.73239517190092" y="-20" height="20"  style="stroke: none; fill: none;"/><line x2="26.73239517190092" style="stroke-width: 2; stroke: rgb(0, 0, 0);"/></g><g  transform="translate(36.73239517190092)"><rect width="410.039070991362" y="-20" height="20"  style="stroke: none; fill: none;"/><line x2="410.039070991362" style="stroke-width: 2; stroke: rgb(0, 0, 0);"/></g><g  transform="translate(456.7714661632629)"><rect width="60.89520050340369" y="-20" height="20"  style="stroke: none; fill: none;"/><line x2="60.89520050340369" style="stroke-width: 2; stroke: rgb(0, 0, 0);"/></g></g></g></svg>