<svg xmlns="http://www.w3.org/2000/svg" viewBox="0 0 580 215" version="1.1"><g transform="translate(-65,10)" background-color="white"><g><path d="M71.20833333333333,200L356.04166666666663,150L640.875,66.66666666666666" style="stroke: rgb(33, 150, 243); stroke-opacity: 0.6; stroke-width: 3; fill: none;"/><path d="M71.20833333333333,200L356.04166666666663,50L640.875,66.66666666666666" style="stroke: rgb(33, 150, 243); stroke-opacity: 0.6; stroke-width: 3; fill: none;"/><path d="M71.20833333333333,177.77777777777777L356.04166666666663,200L640.875,66.66666666666666" style="stroke: rgb(33, 150, 243); stroke-opacity: 0.6; stroke-width: 3; fill: none;"/><path d="M71.20833333333333,177.77777777777777L356.04166666666663,150L640.875,66.66666666666666" style="stroke: rgb(33, 150, 243); stroke-opacity: 0.6; stroke-width: 3; fill: none;"/><path d="M71.20833333333333,177.77777777777777L356.04166666666663,100L640.875,66.66666666666666" style="stroke: rgb(33, 150, 243); stroke-opacity: 0.6; stroke-width: 3; fill: none;"/><path d="M71.20833333333333,155.55555555555554L356.04166666666663,200L640.875,66.66666666666666" style="stroke: rgb(33, 150, 243); stroke-opacity: 0.6; stroke-width: 3; fill: none;"/><path d="M71.20833333333333,155.55555555555554L356.04166666666663,100L640.875,66.66666666666666" style="stroke: rgb(33, 150, 243); stroke-opacity: 0.6; stroke-width: 3; fill: none;"/><path d="M71.20833333333333,155.55555555555554L356.04166666666663,50L640.875,66.66666666666666" style="stroke: rgb(33, 150, 243); stroke-opacity: 0.6; stroke-width: 3; fill: none;"/><path d="M71.20833333333333,155.55555555555554L356.04166666666663,0L640.875,66.66666666666666" style="stroke: rgb(33, 150, 243); stroke-opacity: 0.6; stroke-width: 3; fill: none;"/><path d="M71.20833333333333,133.33333333333334L356.04166666666663,150L640.875,66.66666666666666" style="stroke: rgb(33, 150, 243); stroke-opacity: 0.6; stroke-width: 3; fill: none;"/><path d="M71.20833333333333,133.33333333333334L356.04166666666663,100L640.875,66.66666666666666" style="stroke: rgb(33, 150, 243); stroke-opacity: 0.6; stroke-width: 3; fill: none;"/><path d="M71.20833333333333,133.33333333333334L356.04166666666663,0L640.875,66.66666666666666" style="stroke: rgb(33, 150, 243); stroke-opacity: 0.6; stroke-width: 3; fill: none;"/><path d="M71.20833333333333,111.11111111111111L356.04166666666663,200L640.875,66.66666666666666" style="stroke: rgb(33, 150, 243); stroke-opacity: 0.6; stroke-width: 3; fill: none;"/><path d="M71.20833333333333,111.11111111111111L356.04166666666663,50L640.875,66.66666666666666" style="stroke: rgb(33, 150, 243); stroke-opacity: 0.6; stroke-width: 3; fill: none;"/><path d="M71.20833333333333,88.88888888888889L356.04166666666663,200L640.875,66.66666666666666" style="stroke: rgb(33, 150, 243); stroke-opacity: 0.6; stroke-width: 3; fill: none;"/><path d="M71.20833333333333,88.88888888888889L356.04166666666663,150L640.875,66.66666666666666" style="stroke: rgb(33, 150, 243); stroke-opacity: 0.6; stroke-width: 3; fill: none;"/><path d="M71.20833333333333,88.88888888888889L356.04166666666663,100L640.875,66.66666666666666" style="stroke: rgb(33, 150, 243); stroke-opacity: 0.6; stroke-width: 3; fill: none;"/><path d="M71.20833333333333,88.88888888888889L356.04166666666663,0L640.875,66.66666666666666" style="stroke: rgb(33, 150, 243); stroke-opacity: 0.6; stroke-width: 3; fill: none;"/><path d="M71.20833333333333,66.66666666666669L356.04166666666663,150L640.875,66.66666666666666" style="stroke: rgb(33, 150, 243); stroke-opacity: 0.6; stroke-width: 3; fill: none;"/><path d="M71.20833333333333,66.66666666666669L356.04166666666663,0L640.875,66.66666666666666" style="stroke: rgb(33, 150, 243); stroke-opacity: 0.6; stroke-width: 3; fill: none;"/><path d="M71.20833333333333,44.44444444444446L356.04166666666663,100L640.875,66.66666666666666" style="stroke: rgb(33, 150, 243); stroke-opacity: 0.6; stroke-width: 3; fill: none;"/><path d="M71.20833333333333,44.44444444444446L356.04166666666663,50L640.875,66.66666666666666" style="stroke: rgb(33, 150, 243); stroke-opacity: 0.6; stroke-width: 3; fill: none;"/><path d="M71.20833333333333,22.22222222222223L356.04166666666663,200L640.875,66.66666666666666" style="stroke: rgb(33, 150, 243); stroke-opacity: 0.6; stroke-width: 3; fill: none;"/><path d="M71.20833333333333,22.22222222222223L356.04166666666663,150L640.875,66.66666666666666" style="stroke: rgb(33, 150, 243); stroke-opacity: 0.6; stroke-width: 3; fill: none;"/><path d="M71.20833333333333,22.22222222222223L356.04166666666663,100L640.875,66.66666666666666" style="stroke: rgb(33, 150, 243); stroke-opacity: 0.6; stroke-width: 3; fill: none;"/><path d="M71.20833333333333,22.22222222222223L356.04166666666663,50L640.875,66.66666666666666" style="stroke: rgb(33, 150, 243); stroke-opacity: 0.6; stroke-width: 3; fill: none;"/><path d="M71.20833333333333,22.22222222222223L356.04166666666663,0L640.875,66.66666666666666" style="stroke: rgb(33, 150, 243); stroke-opacity: 0.6; stroke-width: 3; fill: none;"/><path d="M71.20833333333333,0L356.04166666666663,50L640.875,66.66666666666666" style="stroke: rgb(33, 150, 243); stroke-opacity: 0.6; stroke-width: 3; fill: none;"/><path d="M71.20833333333333,0L356.04166666666663,150L640.875,66.66666666666666" style="stroke: rgb(33, 150, 243); stroke-opacity: 0.6; stroke-width: 3; fill: none;"/><path d="M71.20833333333333,0L356.04166666666663,200L640.875,66.66666666666666" style="stroke: rgb(33, 150, 243); stroke-opacity: 0.6; stroke-width: 3; fill: none;"/><path d="M71.20833333333333,0L356.04166666666663,50L640.875,200" style="stroke: rgb(33, 150, 243); stroke-opacity: 0.6; stroke-width: 3; fill: none;"/><path d="M71.20833333333333,0L356.04166666666663,200L640.875,133.33333333333331" style="stroke: rgb(33, 150, 243); stroke-opacity: 0.6; stroke-width: 3; fill: none;"/><path d="M71.20833333333333,0L356.04166666666663,50L640.875,133.33333333333331" style="stroke: rgb(33, 150, 243); stroke-opacity: 0.6; stroke-width: 3; fill: none;"/><path d="M71.20833333333333,0L356.04166666666663,200L640.875,0" style="stroke: rgb(33, 150, 243); stroke-opacity: 0.6; stroke-width: 3; fill: none;"/><path d="M71.20833333333333,0L356.04166666666663,150L640.875,0" style="stroke: rgb(33, 150, 243); stroke-opacity: 0.6; stroke-width: 3; fill: none;"/><path d="M71.20833333333333,0L356.04166666666663,50L640.875,0" style="stroke: rgb(33, 150, 243); stroke-opacity: 0.6; stroke-width: 3; fill: none;"/><path d="M71.20833333333333,22.22222222222223L356.04166666666663,50L640.875,0" style="stroke: rgb(33, 150, 243); stroke-opacity: 0.6; stroke-width: 3; fill: none;"/><path d="M71.20833333333333,22.22222222222223L356.04166666666663,100L640.875,0" style="stroke: rgb(33, 150, 243); stroke-opacity: 0.6; stroke-width: 3; fill: none;"/><path d="M71.20833333333333,22.22222222222223L356.04166666666663,0L640.875,133.33333333333331" style="stroke: rgb(33, 150, 243); stroke-opacity: 0.6; stroke-width: 3; fill: none;"/><path d="M71.20833333333333,22.22222222222223L356.04166666666663,50L640.875,133.33333333333331" style="stroke: rgb(33, 150, 243); stroke-opacity: 0.6; stroke-width: 3; fill: none;"/><path d="M71.20833333333333,22.22222222222223L356.04166666666663,0L640.875,200" style="stroke: rgb(33, 150, 243); stroke-opacity: 0.6; stroke-width: 3; fill: none;"/></g><g transform="translate(640.875)"><g><g transform="translate(0,200)" style="opacity: 1;"><line x2="-6" y2="0"/></g><g transform="translate(0,133.33333333333331)" style="opacity: 1;"><line x2="-6" y2="0"/></g><g transform="translate(0,66.66666666666666)" style="opacity: 1;"><line x2="-6" y2="0"/></g><g transform="translate(0,0)" style="opacity: 1;"><line x2="-6" y2="0"/></g><path d="M-6,0H0V200H-6" style="fill: none; stroke: rgb(68, 68, 68); stroke-width: 2;"/></g><g/></g><g transform="translate(356.04166666666663)"><g><g transform="translate(0,200)" style="opacity: 1;"><line x2="-6" y2="0"/></g><g transform="translate(0,150)" style="opacity: 1;"><line x2="-6" y2="0"/></g><g transform="translate(0,100)" style="opacity: 1;"><line x2="-6" y2="0"/></g><g transform="translate(0,50)" style="opacity: 1;"><line x2="-6" y2="0"/></g><g transform="translate(0,0)" style="opacity: 1;"><line x2="-6" y2="0"/></g><path d="M-6,0H0V200H-6" style="fill: none; stroke: rgb(68, 68, 68); stroke-width: 2;"/></g><g/></g><g transform="translate(71.20833333333333)"><g><g transform="translate(0,200)" style="opacity: 1;"><line x2="-6" y2="0"/></g><g transform="translate(0,177.77777777777777)" style="opacity: 1;"><line x2="-6" y2="0"/></g><g transform="translate(0,155.55555555555554)" style="opacity: 1;"><line x2="-6" y2="0"/></g><g transform="translate(0,133.33333333333334)" style="opacity: 1;"><line x2="-6" y2="0"/></g><g transform="translate(0,111.11111111111111)" style="opacity: 1;"><line x2="-6" y2="0"/></g><g transform="translate(0,88.88888888888889)" style="opacity: 1;"><line x2="-6" y2="0"/></g><g transform="translate(0,66.66666666666669)" style="opacity: 1;"><line x2="-6" y2="0"/></g><g transform="translate(0,44.44444444444446)" style="opacity: 1;"><line x2="-6" y2="0"/></g><g transform="translate(0,22.22222222222223)" style="opacity: 1;"><line x2="-6" y2="0"/></g><g transform="translate(0,0)" style="opacity: 1;"><line x2="-6" y2="0"/></g><path d="M-6,0H0V200H-6" style="fill: none; stroke: rgb(68, 68, 68); stroke-width: 2;"/></g><g/></g></g></svg>