<svg xmlns="http://www.w3.org/2000/svg" viewBox="0 0 77 57"><g id="Layer_4" data-name="Layer 4"><line x1="1" y1="3" x2="26" y2="26" style="fill:none;stroke:#199e77;stroke-linecap:round;stroke-linejoin:round;stroke-width:2px"/><line x1="51" y1="3" x2="26.5" y2="25.5" style="fill:none;stroke:#199e77;stroke-linecap:round;stroke-linejoin:round;stroke-width:2px"/><line x1="76" y1="51" x2="51" y2="3" style="fill:none;stroke:#199e77;stroke-linecap:round;stroke-linejoin:round;stroke-width:2px"/><line x1="1" y1="9" x2="26" y2="19" style="fill:none;stroke:#199e77;stroke-linecap:round;stroke-linejoin:round;stroke-width:2px"/><line x1="51" y1="11" x2="26" y2="19" style="fill:none;stroke:#199e77;stroke-linecap:round;stroke-linejoin:round;stroke-width:2px"/><line x1="76" y1="42" x2="51" y2="11" style="fill:none;stroke:#199e77;stroke-linecap:round;stroke-linejoin:round;stroke-width:2px"/><line x1="76" y1="21" x2="51" y2="16" style="fill:none;stroke:#199e77;stroke-linecap:round;stroke-linejoin:round;stroke-width:2px"/><line x1="26" y1="22" x2="51" y2="16" style="fill:none;stroke:#199e77;stroke-linecap:round;stroke-linejoin:round;stroke-width:2px"/><line x1="1" y1="14" x2="26" y2="22" style="fill:none;stroke:#199e77;stroke-linecap:round;stroke-linejoin:round;stroke-width:2px"/><line x1="1" y1="51" x2="26" y2="42" style="fill:none;stroke:#7470b2;stroke-linecap:round;stroke-linejoin:round;stroke-width:2px"/><line x1="51" y1="51" x2="26" y2="42" style="fill:none;stroke:#7470b2;stroke-linecap:round;stroke-linejoin:round;stroke-width:2px"/><line x1="76" y1="47" x2="51" y2="51" style="fill:none;stroke:#7470b2;stroke-linecap:round;stroke-linejoin:round;stroke-width:2px"/><line x1="1" y1="46" x2="26" y2="37" style="fill:none;stroke:#7470b2;stroke-linecap:round;stroke-linejoin:round;stroke-width:2px"/><line x1="51" y1="47" x2="26" y2="37" style="fill:none;stroke:#7470b2;stroke-linecap:round;stroke-linejoin:round;stroke-width:2px"/><line x1="76" y1="24" x2="51" y2="47" style="fill:none;stroke:#7470b2;stroke-linecap:round;stroke-linejoin:round;stroke-width:2px"/><line x1="76" y1="6" x2="51" y2="23" style="fill:none;stroke:#7470b2;stroke-linecap:round;stroke-linejoin:round;stroke-width:2px"/><line x1="26" y1="29" x2="51" y2="23" style="fill:none;stroke:#7470b2;stroke-linecap:round;stroke-linejoin:round;stroke-width:2px"/><line x1="1" y1="25" x2="26" y2="29" style="fill:none;stroke:#7470b2;stroke-linecap:round;stroke-linejoin:round;stroke-width:2px"/><line x1="1" y1="33" x2="26" y2="33" style="fill:none;stroke:#d86013;stroke-linecap:round;stroke-linejoin:round;stroke-width:2px"/><line x1="51" y1="29" x2="26" y2="33" style="fill:none;stroke:#d86013;stroke-linecap:round;stroke-linejoin:round;stroke-width:2px"/><line x1="76" y1="15" x2="51" y2="29" style="fill:none;stroke:#d86013;stroke-linecap:round;stroke-linejoin:round;stroke-width:2px"/><line x1="1" y1="40" x2="26" y2="35" style="fill:none;stroke:#d86013;stroke-linecap:round;stroke-linejoin:round;stroke-width:2px"/><line x1="51" y1="34" x2="26" y2="35" style="fill:none;stroke:#d86013;stroke-linecap:round;stroke-linejoin:round;stroke-width:2px"/><line x1="76" y1="18" x2="51" y2="34" style="fill:none;stroke:#d86013;stroke-linecap:round;stroke-linejoin:round;stroke-width:2px"/><line x1="1" y1="28" x2="26" y2="31" style="fill:none;stroke:#d86013;stroke-linecap:round;stroke-linejoin:round;stroke-width:2px"/><line x1="51" y1="42" x2="26" y2="31" style="fill:none;stroke:#d86013;stroke-linecap:round;stroke-linejoin:round;stroke-width:2px"/><line x1="76" y1="27" x2="51" y2="42" style="fill:none;stroke:#d86013;stroke-linecap:round;stroke-linejoin:round;stroke-width:2px"/></g><g id="Layer_3" data-name="Layer 3"><path d="M191.5,24.5" transform="translate(-19 -19)" style="fill:#199e77;fill-opacity:0.46;stroke:#575756;stroke-miterlimit:10"/><path d="M122.5,31.5" transform="translate(-19 -19)" style="fill:#199e77;fill-opacity:0.46;stroke:#575756;stroke-miterlimit:10"/><line x1="76" y1="56" x2="76" y2="1" style="fill:none;stroke:#575756;stroke-linecap:round;stroke-linejoin:round;stroke-width:2px"/><line x1="26" y1="1" x2="26" y2="56" style="fill:none;stroke:#575756;stroke-linecap:round;stroke-linejoin:round;stroke-width:2px"/><line x1="51" y1="1" x2="51" y2="56" style="fill:none;stroke:#575756;stroke-linecap:round;stroke-linejoin:round;stroke-width:2px"/></g><g id="Layer_2" data-name="Layer 2"><line x1="1" y1="1" x2="1" y2="56" style="fill:none;stroke:#575756;stroke-linecap:round;stroke-linejoin:round;stroke-width:2px"/></g></svg>