<svg xmlns="http://www.w3.org/2000/svg" viewBox="0 0 109.5 91.5"><g id="Layer_5" data-name="Layer 5"><rect x="2.99" y="13" width="84" height="7" style="fill:#cee2d7"/><rect x="2.99" y="33" width="84" height="8.5" style="fill:#cee2d7"/></g><g id="Layer_4" data-name="Layer 4"><rect x="39" y="13" width="17" height="7" style="fill:#199e77"/><rect x="39" y="33" width="17" height="7" style="fill:#199e77"/></g><g id="Layer_3" data-name="Layer 3"><path d="M191.5,24.5" transform="translate(-9.5 -14.5)" style="fill:#199e77;fill-opacity:0.46;stroke:#575756;stroke-miterlimit:10"/><path d="M122.5,31.5" transform="translate(-9.5 -14.5)" style="fill:#199e77;fill-opacity:0.46;stroke:#575756;stroke-miterlimit:10"/><line x1="17.5" y1="1.5" x2="17.5" y2="61.5" style="fill:none;stroke:#575756;stroke-linecap:round;stroke-linejoin:round;stroke-width:3px"/><line x1="37.5" y1="1.5" x2="37.5" y2="61.5" style="fill:none;stroke:#575756;stroke-linecap:round;stroke-linejoin:round;stroke-width:3px"/><line x1="57.5" y1="1.5" x2="57.5" y2="61.5" style="fill:none;stroke:#575756;stroke-linecap:round;stroke-linejoin:round;stroke-width:3px"/><rect x="2.5" y="3.5" width="85" height="8" style="fill:#575756;stroke:#575756;stroke-linecap:round;stroke-linejoin:round;stroke-width:3px"/><line x1="2.5" y1="21.5" x2="87.5" y2="21.5" style="fill:none;stroke:#575756;stroke-linecap:round;stroke-linejoin:round;stroke-width:3px"/><line x1="2.5" y1="31.5" x2="87.5" y2="31.5" style="fill:none;stroke:#575756;stroke-linecap:round;stroke-linejoin:round;stroke-width:3px"/><line x1="2.5" y1="41.5" x2="87.5" y2="41.5" style="fill:none;stroke:#575756;stroke-linecap:round;stroke-linejoin:round;stroke-width:3px"/><line x1="2.5" y1="51.5" x2="87.5" y2="51.5" style="fill:none;stroke:#575756;stroke-linecap:round;stroke-linejoin:round;stroke-width:3px"/></g><g id="Layer_2" data-name="Layer 2"><rect x="1.5" y="1.5" width="87" height="60" rx="2" style="fill:none;stroke:#575756;stroke-linecap:round;stroke-linejoin:round;stroke-width:3px"/></g><g id="Layer_6" data-name="Layer 6"><circle cx="84" cy="66" r="24.5" style="fill:#199e77;stroke:#575756;stroke-miterlimit:10;stroke-width:2px"/><polyline points="69.5 54.5 79.5 69.5 79.5 84.5 89.5 77.5 89.5 69.5 99.5 54.5" style="fill:#fff;stroke:#575756;stroke-linecap:round;stroke-linejoin:round;stroke-width:2px"/><ellipse cx="84.5" cy="54.5" rx="15" ry="3" style="fill:#fff;stroke:#575756;stroke-miterlimit:10;stroke-width:2px"/><path d="M99,68" transform="translate(-9.5 -14.5)" style="fill:#199e77;stroke:#575756;stroke-linecap:round;stroke-linejoin:round;stroke-width:2px"/></g></svg>