<svg xmlns="http://www.w3.org/2000/svg" xmlns:xlink="http://www.w3.org/1999/xlink" width="430" height="215"  version="1.1"><g  transform="translate(-25,-3)"><g ><g ><line  x1="239.06666666666666" y1="84" x2="170.85689331797826" y2="108.8753882025019" stroke="grey" stroke-width=".5"/><line  x1="170.85689331797826" y1="108.8753882025019" x2="196.9107083722505" y2="149.1246117974981" stroke="grey" stroke-width=".5"/><line  x1="196.9107083722505" y1="149.1246117974981" x2="281.22262496108283" y2="149.12461179749812" stroke="grey" stroke-width=".5"/><line  x1="281.22262496108283" y1="149.12461179749812" x2="307.2764400153551" y2="108.8753882025019" stroke="grey" stroke-width=".5"/><line  x1="307.2764400153551" y1="108.8753882025019" x2="239.06666666666666" y2="84" stroke="grey" stroke-width=".5"/></g><g ><line  x1="239.06666666666666" y1="48" x2="102.64711996928986" y2="97.75077640500378" stroke="grey" stroke-width=".5"/><line  x1="102.64711996928986" y1="97.75077640500378" x2="154.75475007783433" y2="178.2492235949962" stroke="grey" stroke-width=".5"/><line  x1="154.75475007783433" y1="178.2492235949962" x2="323.378583255499" y2="178.2492235949962" stroke="grey" stroke-width=".5"/><line  x1="323.378583255499" y1="178.2492235949962" x2="375.4862133640435" y2="97.75077640500379" stroke="grey" stroke-width=".5"/><line  x1="375.4862133640435" y1="97.75077640500379" x2="239.06666666666672" y2="48" stroke="grey" stroke-width=".5"/></g><g ><line  x1="239.06666666666666" y1="11.999999999999996" x2="34.43734662060143" y2="86.62616460750567" stroke="grey" stroke-width=".5"/><line  x1="34.43734662060143" y1="86.62616460750567" x2="112.59879178341812" y2="207.3738353924943" stroke="grey" stroke-width=".5"/><line  x1="112.59879178341812" y1="207.3738353924943" x2="365.53454154991516" y2="207.37383539249433" stroke="grey" stroke-width=".5"/><line  x1="365.53454154991516" y1="207.37383539249433" x2="443.6959867127319" y2="86.62616460750569" stroke="grey" stroke-width=".5"/><line  x1="443.6959867127319" y1="86.62616460750569" x2="239.06666666666672" y2="11.999999999999996" stroke="grey" stroke-width=".5"/></g><g ><line x1="239.06666666666666" y1="120" x2="239.06666666666666" y2="11.999999999999996" style="stroke: rgb(68, 68, 68); stroke-width: 3;"/></g><g ><line x1="239.06666666666666" y1="120" x2="34.43734662060143" y2="86.62616460750567" style="stroke: rgb(68, 68, 68); stroke-width: 3;"/></g><g  ><g  ><circle  cy="120" cx="239.06666666666666" r="3" style="fill: rgb(255, 127, 14);"/></g><g  ><circle  cy="120" cx="239.06666666666666" r="3" style="fill: rgb(255, 127, 14);"/></g><g  /><g  ><circle  cy="120" cx="239.06666666666666" r="3" style="fill: rgb(255, 127, 14);"/></g><g  ><circle  cy="120" cx="239.06666666666666" r="3" style="fill: rgb(255, 127, 14);"/></g><g  /><g  /><g  ><circle  cy="120" cx="239.06666666666666" r="3" style="fill: rgb(255, 127, 14);"/></g></g><text  x="100" y="100" style="opacity: 0;"/><text  x="100" y="100" style="opacity: 0;"/><text  x="100" y="100" style="opacity: 0;"/><g ><line x1="239.06666666666666" y1="120" x2="112.59879178341812" y2="207.3738353924943" style="stroke: rgb(68, 68, 68); stroke-width: 3;"/></g><text  x="100" y="100" style="opacity: 0;"/><g ><line x1="239.06666666666666" y1="120" x2="365.53454154991516" y2="207.37383539249433" style="stroke: rgb(68, 68, 68); stroke-width: 3;"/></g><text  x="100" y="100" style="opacity: 0;"/><text  x="100" y="100" style="opacity: 0;"/><text  x="100" y="100" style="opacity: 0;"/><text  x="100" y="100" style="opacity: 0;"/><text  x="100" y="100" style="opacity: 0;"/><g ><line x1="239.06666666666666" y1="120" x2="443.6959867127319" y2="86.62616460750569" style="stroke: rgb(68, 68, 68); stroke-width: 3;"/></g><text  x="100" y="100" style="opacity: 0;"/><text  x="100" y="100" style="opacity: 0;"/><text  x="100" y="100" style="opacity: 0;"/><text  x="100" y="100" style="opacity: 0;"/><text  x="100" y="100" style="opacity: 0;"/><text  x="100" y="100" style="opacity: 0;"/><text  x="100" y="100" style="opacity: 0;"/><text  x="100" y="100" style="opacity: 0;"/><text  x="100" y="100" style="opacity: 0;"/><text  x="100" y="100" style="opacity: 0;"/><text  x="100" y="100" style="opacity: 0;"/><text  x="100" y="100" style="opacity: 0;"/><text  x="100" y="100" style="opacity: 0;"/><text  x="100" y="100" style="opacity: 0;"/><text  x="100" y="100" style="opacity: 0;"/><text  x="100" y="100" style="opacity: 0;"/><text  x="100" y="100" style="opacity: 0;"/><text  x="100" y="100" style="opacity: 0;"/><text  x="100" y="100" style="opacity: 0;"/><text  x="100" y="100" style="opacity: 0;"/><text  x="100" y="100" style="opacity: 0;"/><text  x="100" y="100" style="opacity: 0;"/><text  x="100" y="100" style="opacity: 0;"/><text  x="100" y="100" style="opacity: 0;"/><text  x="100" y="100" style="opacity: 0;"/><text  x="100" y="100" style="opacity: 0;"/><text  x="100" y="100" style="opacity: 0;"/><text  x="100" y="100" style="opacity: 0;"/><text  x="100" y="100" style="opacity: 0;"/><text  x="100" y="100" style="opacity: 0;"/><text  x="100" y="100" style="opacity: 0;"/><polygon   points="239.06666666666666,111.91189427312776 237.79313627259603,119.79229470278509 112.59879178341812,207.3738353924943 365.53454154991516,207.37383539249433 443.6959867127319,86.62616460750569" style="stroke: rgb(0, 179, 0); fill: rgb(0, 179, 0);"/><polygon   points="239.06666666666666,11.999999999999996 198.29053895833223,113.34965402917368 126.38766297923864,197.84741168035276 351.8869291524423,197.94500423503092 422.5579185973755,90.07365886511467" style="stroke: rgb(204, 0, 102); fill: rgb(204, 0, 102);"/><polygon   points="239.06666666666666,88.46696035242292 34.43734662060143,86.62616460750567 194.1715910224544,151.01700691098242 283.648867165078,150.80084844771383 311.6238271762486,108.16635499327049" style="stroke: rgb(31, 119, 180); fill: rgb(31, 119, 180);"/><polygon   points="239.06666666666666,120 239.06666666666666,120 239.06666666666666,120 239.06666666666666,120 239.06666666666666,120" style="stroke: rgb(255, 127, 14); fill: rgb(255, 127, 14);"/><text /><g  ><g  ><circle  cy="88.46696035242292" cx="239.06666666666666" r="3" style="fill: rgb(31, 119, 180);"/></g><g  ><circle  cy="86.62616460750567" cx="34.43734662060143" r="3" style="fill: rgb(31, 119, 180);"/></g><g  /><g  ><circle  cy="151.01700691098242" cx="194.1715910224544" r="3" style="fill: rgb(31, 119, 180);"/></g><g  ><circle  cy="150.80084844771383" cx="283.648867165078" r="3" style="fill: rgb(31, 119, 180);"/></g><g  /><g  /><g  ><circle  cy="108.16635499327049" cx="311.6238271762486" r="3" style="fill: rgb(31, 119, 180);"/></g></g><g  ><g  ><circle  cy="111.91189427312776" cx="239.06666666666666" r="3" style="fill: rgb(0, 179, 0);"/></g><g  ><circle  cy="119.79229470278509" cx="237.79313627259603" r="3" style="fill: rgb(0, 179, 0);"/></g><g  /><g  ><circle  cy="207.3738353924943" cx="112.59879178341812" r="3" style="fill: rgb(0, 179, 0);"/></g><g  ><circle  cy="207.37383539249433" cx="365.53454154991516" r="3" style="fill: rgb(0, 179, 0);"/></g><g  /><g  /><g  ><circle  cy="86.62616460750569" cx="443.6959867127319" r="3" style="fill: rgb(0, 179, 0);"/></g></g><g  ><g  ><circle  cy="11.999999999999996" cx="239.06666666666666" r="3" style="fill: rgb(204, 0, 102);"/></g><g  ><circle  cy="113.34965402917368" cx="198.29053895833223" r="3" style="fill: rgb(204, 0, 102);"/></g><g  /><g  ><circle  cy="197.84741168035276" cx="126.38766297923864" r="3" style="fill: rgb(204, 0, 102);"/></g><g  ><circle  cy="197.94500423503092" cx="351.8869291524423" r="3" style="fill: rgb(204, 0, 102);"/></g><g  /><g  /><g  ><circle  cy="90.07365886511467" cx="422.5579185973755" r="3" style="fill: rgb(204, 0, 102);"/></g></g></g></g></svg>