<svg xmlns="http://www.w3.org/2000/svg" viewBox="0 0 87 57"><g id="Layer_2" data-name="Layer 2"><line x1="1" y1="1" x2="1" y2="56" style="fill:none;stroke:#575756;stroke-linecap:round;stroke-linejoin:round;stroke-width:2px"/><line x1="86" y1="56" x2="1" y2="56" style="fill:none;stroke:#575756;stroke-linecap:round;stroke-linejoin:round;stroke-width:2px"/><circle cx="18.5" cy="18.5" r="2.5" style="fill:#199e77"/><circle cx="28.5" cy="8.5" r="2.5" style="fill:#199e77"/><circle cx="18.5" cy="28.5" r="2.5" style="fill:#199e77"/><circle cx="68.5" cy="13.5" r="2.5" style="fill:#199e77"/><circle cx="28.5" cy="23.5" r="2.5" style="fill:#199e77"/><circle cx="43.5" cy="8.5" r="2.5" style="fill:#199e77"/><circle cx="33.5" cy="13.5" r="2.5" style="fill:#199e77"/><circle cx="63.5" cy="23.5" r="2.5" style="fill:#d86013"/><circle cx="53.5" cy="41" r="2.5" style="fill:#d86013"/><circle cx="48.5" cy="23.5" r="2.5" style="fill:#d86013"/><circle cx="38.5" cy="43.5" r="2.5" style="fill:#d86013"/><circle cx="43.5" cy="28.5" r="2.5" style="fill:#d86013"/><circle cx="46" cy="38.5" r="2.5" style="fill:#d86013"/><circle cx="56" cy="28.5" r="2.5" style="fill:#d86013"/><circle cx="13.5" cy="38.5" r="2.5" style="fill:#7470b2"/><circle cx="23.5" cy="38.5" r="2.5" style="fill:#7470b2"/><circle cx="28.5" cy="48.5" r="2.5" style="fill:#7470b2"/><circle cx="8.5" cy="43.5" r="2.5" style="fill:#7470b2"/><circle cx="73.5" cy="28.5" r="2.5" style="fill:#7470b2"/><circle cx="53.5" cy="13.5" r="2.5" style="fill:#7470b2"/><circle cx="33.5" cy="33.5" r="2.5" style="fill:#7470b2"/><circle cx="43.5" cy="48.5" r="2.5" style="fill:#199e77"/></g></svg>