<svg xmlns="http://www.w3.org/2000/svg" viewBox="0 0 208.82 63"><g id="Layer_3" data-name="Layer 3"><rect x="121.81" y="25.4" width="84" height="28.1" style="fill:#cee2d7"/><line x1="136.32" y1="13.9" x2="136.32" y2="54" style="fill:none;stroke:#575756;stroke-linecap:round;stroke-linejoin:round;stroke-width:3px"/><line x1="156.32" y1="13.9" x2="156.32" y2="54" style="fill:none;stroke:#575756;stroke-linecap:round;stroke-linejoin:round;stroke-width:3px"/><line x1="176.32" y1="13.9" x2="176.32" y2="54" style="fill:none;stroke:#575756;stroke-linecap:round;stroke-linejoin:round;stroke-width:3px"/><rect x="121.32" y="15.9" width="85" height="8" style="fill:#575756;stroke:#575756;stroke-linecap:round;stroke-linejoin:round;stroke-width:3px"/><line x1="121.32" y1="33.9" x2="206.32" y2="33.9" style="fill:none;stroke:#575756;stroke-linecap:round;stroke-linejoin:round;stroke-width:3px"/><line x1="121.32" y1="43.9" x2="206.32" y2="43.9" style="fill:none;stroke:#575756;stroke-linecap:round;stroke-linejoin:round;stroke-width:3px"/><line x1="121.32" y1="53.9" x2="206.32" y2="53.9" style="fill:none;stroke:#575756;stroke-linecap:round;stroke-linejoin:round;stroke-width:3px"/><rect x="120.32" y="13.9" width="87" height="40.1" rx="2" style="fill:none;stroke:#575756;stroke-linecap:round;stroke-linejoin:round;stroke-width:3px"/><path d="M190.5,20.54" transform="translate(-9.5 -11.54)" style="fill:#199e77;fill-opacity:0.46;stroke:#575756;stroke-miterlimit:10"/><path d="M122.5,43" transform="translate(-9.5 -11.54)" style="fill:#199e77;fill-opacity:0.46;stroke:#575756;stroke-miterlimit:10"/></g><g id="Layer_6" data-name="Layer 6"><rect x="2.99" y="13" width="84" height="7" style="fill:#cee2d7"/><rect x="2.99" y="33" width="84" height="18.5" style="fill:#cee2d7"/><line x1="17.5" y1="1.5" x2="17.5" y2="61.5" style="fill:none;stroke:#575756;stroke-linecap:round;stroke-linejoin:round;stroke-width:3px"/><line x1="37.5" y1="1.5" x2="37.5" y2="61.5" style="fill:none;stroke:#575756;stroke-linecap:round;stroke-linejoin:round;stroke-width:3px"/><line x1="57.5" y1="1.5" x2="57.5" y2="61.5" style="fill:none;stroke:#575756;stroke-linecap:round;stroke-linejoin:round;stroke-width:3px"/><rect x="2.5" y="3.5" width="85" height="8" style="fill:#575756;stroke:#575756;stroke-linecap:round;stroke-linejoin:round;stroke-width:3px"/><line x1="2.5" y1="21.5" x2="87.5" y2="21.5" style="fill:none;stroke:#575756;stroke-linecap:round;stroke-linejoin:round;stroke-width:3px"/><line x1="2.5" y1="31.5" x2="87.5" y2="31.5" style="fill:none;stroke:#575756;stroke-linecap:round;stroke-linejoin:round;stroke-width:3px"/><line x1="2.5" y1="41.5" x2="87.5" y2="41.5" style="fill:none;stroke:#575756;stroke-linecap:round;stroke-linejoin:round;stroke-width:3px"/><line x1="2.5" y1="51.5" x2="87.5" y2="51.5" style="fill:none;stroke:#575756;stroke-linecap:round;stroke-linejoin:round;stroke-width:3px"/><rect x="1.5" y="1.5" width="87" height="60" rx="2" style="fill:none;stroke:#575756;stroke-linecap:round;stroke-linejoin:round;stroke-width:3px"/><path d="M99,65" transform="translate(-9.5 -11.54)" style="fill:#199e77;stroke:#575756;stroke-linecap:round;stroke-linejoin:round;stroke-width:2px"/><circle cx="90.39" cy="31.5" r="24.5" style="fill:#199e77;stroke:#575756;stroke-miterlimit:10;stroke-width:2px"/><polyline points="75.89 20 85.89 35 85.89 50 95.89 43 95.89 35 105.89 20" style="fill:#fff;stroke:#575756;stroke-linecap:round;stroke-linejoin:round;stroke-width:2px"/><ellipse cx="90.89" cy="20" rx="15" ry="3" style="fill:#fff;stroke:#575756;stroke-miterlimit:10;stroke-width:2px"/><path d="M105.39,30.54" transform="translate(-9.5 -11.54)" style="fill:#199e77;stroke:#575756;stroke-linecap:round;stroke-linejoin:round;stroke-width:2px"/></g></svg>