<svg id="Capa_1" data-name="Capa 1" xmlns="http://www.w3.org/2000/svg" viewBox="0 0 22.79 26.95"><path d="M45,53.58V67.93a1.72,1.72,0,0,1-1.72,1.72H31.73A1.72,1.72,0,0,1,30,67.93V52.08a1.72,1.72,0,0,1,1.71-1.72H41.8" transform="translate(-29.52 -49.86)" style="fill:#fff;stroke:#6d6d6c;stroke-linecap:round;stroke-linejoin:round"/><polygon points="12.29 3.71 12.29 0.5 15.5 3.71 12.29 3.71" style="fill:#fff;stroke:#6d6d6c;stroke-linecap:round;stroke-linejoin:round"/><line x1="13.36" y1="14.43" x2="2.64" y2="14.43" style="fill:none;stroke:#6d6d6c;stroke-linecap:round;stroke-linejoin:round"/><line x1="13.36" y1="12.29" x2="2.64" y2="12.29" style="fill:none;stroke:#6d6d6c;stroke-linecap:round;stroke-linejoin:round"/><line x1="13.36" y1="10.14" x2="2.64" y2="10.14" style="fill:none;stroke:#6d6d6c;stroke-linecap:round;stroke-linejoin:round"/><line x1="13.36" y1="8" x2="2.64" y2="8" style="fill:none;stroke:#6d6d6c;stroke-linecap:round;stroke-linejoin:round"/><path d="M87,14.57" transform="translate(-29.52 -49.86)" style="fill:#199e77;stroke:#575756;stroke-linecap:round;stroke-linejoin:round;stroke-width:2px"/><circle cx="15.63" cy="19.79" r="6.67" style="fill:#199e77;stroke:#575756;stroke-linecap:round;stroke-linejoin:round"/><rect x="45.88" y="68.36" width="1.62" height="5.66" transform="translate(-66.18 4) rotate(-45)" style="fill:#fff;stroke:#575756;stroke-linecap:round;stroke-linejoin:round"/><circle cx="14.34" cy="18.5" r="2.83" style="fill:#fff;stroke:#575756;stroke-linecap:round;stroke-linejoin:round"/></svg>